<?xml version="1.0" encoding="UTF-8" standalone="no"?>
<!-- Created with Inkscape (http://www.inkscape.org/) -->

<svg
   xmlns:dc="http://purl.org/dc/elements/1.1/"
   xmlns:cc="http://creativecommons.org/ns#"
   xmlns:rdf="http://www.w3.org/1999/02/22-rdf-syntax-ns#"
   xmlns:svg="http://www.w3.org/2000/svg"
   xmlns="http://www.w3.org/2000/svg"
   xmlns:xlink="http://www.w3.org/1999/xlink"
   xmlns:sodipodi="http://sodipodi.sourceforge.net/DTD/sodipodi-0.dtd"
   xmlns:inkscape="http://www.inkscape.org/namespaces/inkscape"
   width="210mm"
   height="297mm"
   viewBox="0 0 744.09448819 1052.3622047"
   id="svg2"
   version="1.1"
   inkscape:version="0.91 r13725"
   sodipodi:docname="Menu.svg">
  <defs
     id="defs4" />
  <sodipodi:namedview
     id="base"
     pagecolor="#ffffff"
     bordercolor="#666666"
     borderopacity="1.0"
     inkscape:pageopacity="0.0"
     inkscape:pageshadow="2"
     inkscape:zoom="0.54654435"
     inkscape:cx="673.88809"
     inkscape:cy="808.34746"
     inkscape:document-units="px"
     inkscape:current-layer="layer1"
     showgrid="false"
     inkscape:window-width="1536"
     inkscape:window-height="801"
     inkscape:window-x="-8"
     inkscape:window-y="-8"
     inkscape:window-maximized="1" />
  <metadata
     id="metadata7">
    <rdf:RDF>
      <cc:Work
         rdf:about="">
        <dc:format>image/svg+xml</dc:format>
        <dc:type
           rdf:resource="http://purl.org/dc/dcmitype/StillImage" />
        <dc:title />
      </cc:Work>
    </rdf:RDF>
  </metadata>
  <g
     inkscape:label="Ebene 1"
     inkscape:groupmode="layer"
     id="layer1">
    <g
       id="g5127"
       inkscape:export-xdpi="473.23999"
       inkscape:export-ydpi="473.23999">
      <path
         inkscape:connector-curvature="0"
         id="path3734"
         d="m 349.16211,256.68164 -0.62305,3.39063 c -1.07076,0.29743 -2.35071,0.53638 -3.83789,0.71484 -1.42768,0.11897 -3.09251,0.23845 -4.99609,0.35742 0,2.49846 0.0284,4.93693 0.0879,7.31641 0.0595,2.37948 0.0898,4.78759 0.0898,7.22656 l 7.4961,-0.35547 -0.98243,8.11914 -6.06836,1.42774 4.37305,13.20703 -1.78515,15.16797 17.13281,-0.80274 0.44726,-9.27929 19.45118,20.2539 11.77929,-8.92187 -17.57812,-21.50586 c 2.67691,-1.30872 4.6982,-3.29965 6.0664,-5.97657 1.42769,-2.7364 2.14258,-5.74188 2.14258,-9.01367 0,-2.61743 -0.44754,-5.0559 -1.33984,-7.3164 -0.83282,-2.26052 -2.05206,-4.22304 -3.6582,-5.88868 -1.54668,-1.66564 -3.45044,-2.97398 -5.71094,-3.92578 -2.26051,-1.0113 -4.75774,-1.54795 -7.49414,-1.60742 l 0,-2.58789 -14.99219,0 z m -205.04688,1.42774 c -3.74768,0 -7.19874,0.68452 -10.35156,2.05273 -3.09332,1.30871 -5.74038,3.15372 -7.9414,5.5332 -2.20102,2.32 -3.9246,5.08458 -5.17383,8.29688 -1.18974,3.2123 -1.78516,6.72212 -1.78516,10.52929 0,3.86666 0.71293,7.46561 2.14063,10.79688 1.48717,3.33127 3.51041,6.21728 6.06836,8.65625 2.55794,2.43897 5.56146,4.37113 9.01171,5.79883 3.45025,1.42768 7.16867,2.14258 11.1543,2.14258 2.67692,0 5.35434,-0.89313 8.03125,-2.67774 2.73641,-1.78461 5.17487,-4.07325 7.31641,-6.86914 2.14153,-2.79589 3.86706,-5.92084 5.17578,-9.37109 1.3682,-3.45025 2.05273,-6.8406 2.05273,-10.17188 0,-3.56922 -0.65613,-6.87047 -1.96484,-9.90429 -1.30872,-3.03384 -3.12141,-5.65055 -5.44141,-7.85157 -2.2605,-2.20102 -4.96828,-3.89622 -8.12109,-5.08593 -3.09333,-1.24924 -6.48368,-1.875 -10.17188,-1.875 z m 439.68165,4.81835 -0.53516,2.94532 c -1.01128,0.23795 -2.1414,0.47494 -3.39063,0.71289 -1.24922,0.17848 -2.64669,0.29795 -4.19336,0.35742 l 0.0898,13.02734 6.60156,-0.35547 -0.98047,6.69141 -5.35351,1.16016 4.01367,11.68945 -1.60547,13.5625 15.08008,-0.98047 0.44726,-7.76367 16.86328,17.48828 10.35157,-8.0293 c -3.27179,-3.92614 -6.1862,-7.40756 -8.74414,-10.4414 -2.49846,-3.09333 -4.67153,-5.79915 -6.51563,-8.11914 4.75897,-2.02256 7.13867,-6.36479 7.13867,-13.02735 0,-2.37948 -0.38682,-4.5506 -1.16015,-6.51367 -0.77333,-2.02256 -1.84273,-3.74809 -3.21094,-5.17578 -1.3682,-1.48717 -3.03497,-2.64765 -4.99805,-3.48047 -1.90358,-0.89233 -4.04435,-1.36827 -6.42383,-1.42773 l 0,-1.96289 -13.4746,-0.35743 z m -321.0293,2.5 c 0.0595,0.0595 0.0898,0.32684 0.0898,0.80274 0,0.71384 -0.20858,1.36802 -0.625,1.96289 -0.4164,0.53539 -0.98146,1.03973 -1.69531,1.51562 -0.65436,0.41641 -1.39766,0.74447 -2.23047,0.98243 -0.77333,0.23794 -1.51662,0.35742 -2.23047,0.35742 0,0.35692 0.0891,0.83286 0.26758,1.42773 0.17846,0.53538 0.35669,1.12885 0.53516,1.78321 0.17846,0.59487 0.35669,1.15993 0.53515,1.69531 0.17846,0.4759 0.26758,0.83432 0.26758,1.07226 0,0.23795 -0.11947,0.86177 -0.35742,1.87305 -0.23795,0.95179 -0.56406,2.11227 -0.98047,3.48047 -0.41641,1.36821 -0.86199,2.82443 -1.33789,4.37109 -0.47589,1.54667 -0.98219,3.00485 -1.51758,4.37305 -0.47589,1.30871 -0.92148,2.43885 -1.33789,3.39062 -0.41641,0.9518 -0.74447,1.48845 -0.98242,1.60743 -0.53539,0.35692 -1.15921,0.62427 -1.87305,0.80273 -0.71384,0.17846 -1.39837,0.32634 -2.05273,0.44531 -0.65436,0.119 -1.21942,0.20812 -1.69531,0.26758 l -0.80274,0 c 0,5.65128 0.50435,9.84563 1.51563,12.58203 0,0.0595 0.11947,0.26808 0.35742,0.625 0.23794,0.29744 0.5053,0.65391 0.80273,1.07032 0.29744,0.4164 0.56479,0.83358 0.80274,1.25 0.23794,0.4164 0.35742,0.77287 0.35742,1.07031 0.59487,-0.29744 1.30976,-0.44727 2.14258,-0.44727 0.35692,0 0.86126,0.0891 1.51562,0.26758 l 1.96289,0.71484 c 0.65436,0.29744 1.28014,0.56479 1.875,0.80274 0.65436,0.23795 1.15871,0.41616 1.51563,0.53516 0.77333,-1.66565 1.3991,-3.12187 1.875,-4.3711 0.4759,-1.24923 0.89112,-2.29023 1.24804,-3.12305 1.4277,0 3.09447,-0.0891 4.99805,-0.26757 1.90359,-0.17847 4.0747,-0.50653 6.51367,-0.98243 0.9518,1.48718 1.66473,2.82588 2.14063,4.01563 0.53538,1.13025 0.80469,2.08214 0.80469,2.85547 l 0.98046,-0.71485 c 0.65436,-0.4164 1.45837,-0.89234 2.41016,-1.42773 0.95179,-0.47589 1.93208,-0.92148 2.94336,-1.33789 1.01128,-0.47589 1.87404,-0.71289 2.58789,-0.71289 0.11897,0 0.29721,0.0284 0.53516,0.0879 0.29743,0 0.62549,0.0304 0.98242,0.0898 l 0.98047,-0.53515 c -0.11898,-0.35692 -0.2365,-1.13058 -0.35547,-2.32032 -0.11898,-1.24922 -0.23845,-2.61828 -0.35742,-4.10546 -0.11898,-1.48718 -0.26686,-2.915 -0.44532,-4.28321 -0.17846,-1.42768 -0.35865,-2.49707 -0.53711,-3.21094 -0.11897,0.0595 -0.44508,0.0879 -0.98046,0.0879 l -3.8379,0 c -1.72512,-4.28307 -3.27047,-7.73218 -4.63867,-10.34961 -1.3682,-2.67692 -2.49832,-4.55033 -3.39062,-5.6211 0.65435,-1.90358 1.18905,-3.59878 1.60547,-5.08593 0.47589,-1.48718 0.92147,-2.73677 1.33789,-3.74805 l -1.87305,0.35547 c -3.56922,-3.45025 -7.02029,-5.44118 -10.35156,-5.97657 z m -75.34961,2.05079 c -2.14153,0 -4.13442,0.62577 -5.97852,1.875 -1.7846,1.18974 -3.3319,2.79579 -4.64062,4.81836 -1.30872,2.02255 -2.34972,4.3719 -3.12305,7.04882 -0.71384,2.67692 -1.07031,5.47186 -1.07031,8.38672 0,2.97436 0.35647,5.74088 1.07031,8.29883 0.77333,2.49845 1.84469,4.69993 3.21289,6.60352 1.4277,1.8441 3.12287,3.30228 5.08594,4.37304 1.96307,1.07077 4.19295,1.60547 6.69141,1.60547 1.30872,0 2.73654,-0.17824 4.2832,-0.53516 1.60615,-0.41641 3.06433,-0.95306 4.37305,-1.60742 1.3682,-0.71384 2.49831,-1.51589 3.39062,-2.4082 0.89231,-0.95179 1.33789,-1.99279 1.33789,-3.12305 0,-0.0595 -0.237,-0.44631 -0.71289,-1.16015 -0.4759,-0.71385 -1.04096,-1.51591 -1.69531,-2.40821 -0.65436,-0.95179 -1.36925,-1.90367 -2.14258,-2.85547 -0.77333,-1.01127 -1.45787,-1.81528 -2.05273,-2.41015 -1.30872,3.33127 -2.76495,4.99609 -4.3711,4.99609 -0.71384,0 -1.39837,-0.41523 -2.05273,-1.24804 -0.65436,-0.89231 -1.24977,-1.96366 -1.78516,-3.2129 -0.47589,-1.24922 -0.86272,-2.55758 -1.16016,-3.92578 -0.29744,-1.42769 -0.44531,-2.67728 -0.44531,-3.74804 0,-4.63999 1.39747,-6.95899 4.19336,-6.95899 1.60616,0 3.56868,0.80206 5.88867,2.40821 0,-2.20102 0.11948,-4.22231 0.35743,-6.06641 0.23794,-1.90359 0.59441,-3.65948 1.07031,-5.26563 -3.33128,-2.31999 -6.57179,-3.48046 -9.72461,-3.48046 z m 242.38086,0.17968 -14.09766,1.33789 0,1.51758 c 0,9.99382 -0.5347,17.33958 -1.60547,22.03906 -1.07076,4.64 -2.7963,6.96094 -5.17578,6.96094 -3.27179,0 -4.9082,-3.45106 -4.9082,-10.35156 0,-0.65436 0.0304,-1.665 0.0898,-3.0332 0.0595,-1.3682 0.11827,-2.79603 0.17774,-4.28321 0.0595,-1.54666 0.11826,-3.00484 0.17773,-4.37304 0.0595,-1.42769 0.0899,-2.46869 0.0899,-3.12305 -1e-5,-0.83282 -0.0304,-1.66523 -0.0899,-2.49805 -0.0595,-0.83281 -0.11827,-1.57611 -0.17773,-2.23047 l -14.00977,1.33789 c 0.0595,0.0595 0.0899,0.38756 0.0899,0.98243 l 0,8.47656 c 0,3.03384 -0.0588,5.41354 -0.17774,7.13867 -0.11897,1.66563 -0.17969,2.82416 -0.17969,3.47852 0,4.46153 0.35842,8.26906 1.07227,11.42187 0.77333,3.09333 1.93185,5.62287 3.47851,7.58594 1.54667,1.96307 3.51115,3.36054 5.89063,4.19336 2.37948,0.8923 5.20477,1.33789 8.47656,1.33789 11.65946,0 18.44017,-8.50623 20.34375,-25.51953 l 0,-5.6211 c 0,-1.96307 0.0891,-3.95595 0.26758,-5.97851 0.17847,-2.08205 0.38705,-4.22476 0.625,-6.42578 l 0.17773,-0.625 c 0,-0.41641 -0.0588,-0.92075 -0.17773,-1.51563 -0.11897,-0.59486 -0.23845,-1.33816 -0.35742,-2.23047 z m -122.84961,0.98047 -14.09766,0.44727 c 0,1.07076 -0.0588,2.20088 -0.17773,3.39062 -0.0595,1.13026 -0.12022,2.23002 -0.17969,3.30078 l -4.19336,4.72852 2.49805,2.32031 c 0.8923,0.77333 1.72472,1.57734 2.49805,2.41016 l 2.85546,26.41211 2.14258,0 2.85547,0.44531 c 0.83281,0.0595 1.57611,0.1486 2.23047,0.26758 0.65436,0.11897 1.24978,0.17969 1.78516,0.17969 0.65436,0 1.24782,-0.0304 1.7832,-0.0899 0.59487,-0.0595 1.10117,-0.1486 1.51758,-0.26758 -0.119,-2.49845 -0.20811,-5.02603 -0.26758,-7.58398 -0.0595,-2.55794 -0.17896,-5.08748 -0.35742,-7.58594 l 12.84961,12.49219 0.26757,2.85547 13.83008,1.42773 c 0,-1.24922 -0.0284,-2.55758 -0.0879,-3.92578 l 0,-4.01562 3.39063,-2.94336 -3.48047,-3.83789 0.89258,-28.01758 -14.36719,-1.33985 c -0.11899,3.27179 -0.20811,6.57497 -0.26758,9.90625 -0.0595,3.27179 -0.177,6.54267 -0.35547,9.81446 l -12.84961,-13.02735 -0.71484,-7.76367 z m 143.95508,0 -14.09961,0.44727 c 0,1.07076 -0.0588,2.20088 -0.17774,3.39062 -0.0595,1.13026 -0.11826,2.23002 -0.17773,3.30078 l -4.19531,4.72852 2.5,2.32031 c 0.8923,0.77333 1.72472,1.57734 2.49804,2.41016 l 2.85547,26.41211 2.14063,0 2.85547,0.44531 c 0.83281,0.0595 1.5761,0.1486 2.23046,0.26758 0.65436,0.11897 1.24978,0.17969 1.78516,0.17969 0.65436,0 1.24978,-0.0304 1.78516,-0.0899 0.59487,-0.0595 1.09922,-0.1486 1.51562,-0.26758 -0.11899,-2.49845 -0.20811,-5.02603 -0.26758,-7.58398 -0.0595,-2.55794 -0.17701,-5.08748 -0.35546,-7.58594 l 12.84765,12.49219 0.26758,2.85547 13.83203,1.42773 c 0,-1.24922 -0.0304,-2.55758 -0.0898,-3.92578 l 0,-4.01562 3.39062,-2.94336 -3.48047,-3.83789 0.89258,-28.01758 -14.36523,-1.33985 c -0.119,3.27179 -0.20811,6.57497 -0.26758,9.90625 -0.0595,3.27179 -0.17896,6.54267 -0.35742,9.81446 l -12.84961,-13.02735 -0.71289,-7.76367 z m 51.75976,0 -14.09765,0.44727 c 0,1.07076 -0.0607,2.20088 -0.17969,3.39062 -0.0595,1.13026 -0.11827,2.23002 -0.17774,3.30078 l -4.19336,4.72852 2.49805,2.32031 c 0.89231,0.77333 1.72472,1.57734 2.49805,2.41016 l 2.85547,26.41211 2.14258,0 2.85546,0.44531 c 0.83282,0.0595 1.57612,0.1486 2.23047,0.26758 0.65436,0.11897 1.24978,0.17969 1.78516,0.17969 0.65436,0 1.24782,-0.0304 1.7832,-0.0899 0.59487,-0.0595 1.10117,-0.1486 1.51758,-0.26758 -0.119,-2.49845 -0.20811,-5.02603 -0.26758,-7.58398 -0.0595,-2.55794 -0.17896,-5.08748 -0.35742,-7.58594 l 12.84961,12.49219 0.26758,2.85547 13.83008,1.42773 c 0,-1.24922 -0.0284,-2.55758 -0.0879,-3.92578 l 0,-4.01562 3.39062,-2.94336 -3.48047,-3.83789 0.89258,-28.01758 -14.36719,-1.33985 c -0.11899,3.27179 -0.20811,6.57497 -0.26758,9.90625 -0.0595,3.27179 -0.177,6.54267 -0.35546,9.81446 l -12.84961,-13.02735 -0.71485,-7.76367 z m -290.86133,0.98242 0,2.32032 -5.08593,-0.17969 -1.33985,13.11719 5.62305,0 0,14.27734 -6.1582,-0.44727 -2.05274,11.42188 7.94141,1.51758 -0.17774,2.14062 c 1.01128,-0.0595 1.99352,-0.11827 2.94532,-0.17773 1.01128,-0.0595 2.05228,-0.0899 3.12304,-0.0899 6.4841,0 12.96709,0.59542 19.45118,1.78516 l 2.05273,-10.43945 -13.11719,-3.12305 0,-2.32031 10.61914,0.625 0.53516,-12.67188 -10.97461,0 0,-3.74804 18.20312,-1.60547 -2.76757,-10.79688 -14.90039,0 -1.33985,-1.60547 -12.58008,0 z m 331.82618,0 0,2.32032 -5.08594,-0.17969 -1.33985,13.11719 5.62305,0 0,14.27734 -6.1582,-0.44727 -2.05274,11.42188 7.94141,1.51758 -0.17773,2.14062 c 1.01128,-0.0595 1.99352,-0.11827 2.94531,-0.17773 1.01128,-0.0595 2.05228,-0.0899 3.12305,-0.0899 6.48408,0 12.96707,0.59542 19.45117,1.78516 l 2.05273,-10.43945 -13.11719,-3.12305 0,-2.32031 10.61914,0.625 0.53516,-12.67188 -10.97461,0 0,-3.74804 18.20313,-1.60547 -2.76758,-10.79688 -14.90039,0 -1.33985,-1.60547 -12.58007,0 z m -180.36719,4.28321 c 3.86665,0 5.79883,1.24764 5.79883,3.74609 0,1.18974 -0.56506,2.23074 -1.69532,3.12305 -1.13025,0.83284 -2.91454,1.28037 -5.35351,1.33984 l 1.25,-8.20898 z m -217.98633,1.33789 c 3.09333,0 5.56215,0.95188 7.40625,2.85547 1.90359,1.84409 2.85547,4.34327 2.85547,7.49609 0,1.72512 -0.35647,3.33118 -1.07031,4.81836 -0.65436,1.42769 -1.57784,2.67533 -2.76758,3.74609 -1.13025,1.07077 -2.46896,1.90513 -4.01563,2.5 -1.54666,0.59487 -3.18112,0.89063 -4.90625,0.89063 -3.03384,0 -5.41354,-1.01063 -7.13867,-3.03321 -1.66563,-2.02255 -2.49804,-4.66961 -2.49805,-7.9414 10e-6,-1.60615 0.32612,-3.09273 0.98047,-4.46094 0.65436,-1.42769 1.51713,-2.64692 2.58789,-3.6582 1.13026,-1.01128 2.4102,-1.78493 3.8379,-2.32031 1.48717,-0.59487 3.06287,-0.89258 4.72851,-0.89258 z m 451.10352,3.12304 c 3.2123,0 4.81836,1.01065 4.81836,3.03321 0,2.31999 -1.93413,3.53923 -5.80079,3.6582 l 0.98243,-6.69141 z m -330.04102,15.25782 1.51563,4.01562 -2.94336,-0.71289 1.42773,-3.30273 z"
         style="font-style:normal;font-variant:normal;font-weight:normal;font-stretch:normal;font-size:medium;line-height:125%;font-family:'Burnstown Dam';-inkscape-font-specification:'Burnstown Dam';letter-spacing:0px;word-spacing:0px;fill:#d3bc5f;fill-opacity:1;stroke:none;stroke-width:1px;stroke-linecap:butt;stroke-linejoin:miter;stroke-opacity:1" />
      <g
         id="text3336"
         style="font-style:normal;font-weight:normal;font-size:89.23059082px;line-height:125%;font-family:sans-serif;letter-spacing:0px;word-spacing:0px;fill:#000000;fill-opacity:1;stroke:none;stroke-width:1px;stroke-linecap:butt;stroke-linejoin:miter;stroke-opacity:1">
        <path
           id="path3829"
           style="font-style:normal;font-variant:normal;font-weight:normal;font-stretch:normal;font-family:'Burnstown Dam';-inkscape-font-specification:'Burnstown Dam'"
           d="m 169.81353,282.82671 q 0,4.99691 -2.0523,10.17228 -1.96308,5.17538 -5.17538,9.36922 -3.2123,4.19383 -7.31691,6.87075 -4.01537,2.67692 -8.03075,2.67692 -5.97845,0 -11.15382,-2.14153 -5.17538,-2.14154 -9.01229,-5.79999 -3.83692,-3.65846 -6.06768,-8.65537 -2.14154,-4.99691 -2.14154,-10.7969 0,-5.71076 1.78461,-10.52921 1.87385,-4.81845 5.17538,-8.29845 3.30153,-3.56922 7.94152,-5.53229 4.72922,-2.05231 10.35075,-2.05231 5.5323,0 10.17229,1.87385 4.72922,1.78461 8.11998,5.08614 3.47999,3.30153 5.44307,7.85229 1.96307,4.55076 1.96307,9.9046 z m -2.67692,-1.33846 q 0,-9.9046 -5.35383,-15.43689 -5.35384,-5.62153 -15.25843,-5.62153 -5.5323,0 -10.08306,1.51692 -4.46153,1.42769 -7.67383,4.28307 -3.2123,2.76615 -4.99691,6.87075 -1.69539,4.01538 -1.69539,9.19075 0,5.35384 1.96308,10.35075 2.0523,4.99691 5.53229,8.83383 3.56923,3.83692 8.29845,6.15691 4.72922,2.23077 10.17229,2.23077 3.83691,0 7.3169,-2.49846 3.48,-2.58769 6.06768,-6.60306 2.67692,-4.10461 4.19384,-9.10152 1.51692,-5.08615 1.51692,-10.17229 z m -11.59997,4.10461 q 0,2.58768 -1.07077,4.81845 -0.98154,2.14153 -2.76615,3.74768 -1.69538,1.60615 -4.01538,2.49846 -2.31999,0.8923 -4.90768,0.8923 -4.55076,0 -7.13845,-3.03384 -2.49845,-3.03384 -2.49845,-7.94152 0,-2.40922 0.98153,-4.46153 0.98154,-2.14153 2.58769,-3.65845 1.69538,-1.51692 3.83692,-2.32 2.23076,-0.8923 4.72922,-0.8923 4.63999,0 7.40614,2.85538 2.85538,2.76614 2.85538,7.49537 z m -2.67692,0.8923 q 0,-1.87384 -0.71385,-3.56922 -0.71384,-1.78461 -1.96307,-3.03384 -1.16,-1.33846 -2.76615,-2.05231 -1.60615,-0.80307 -3.30153,-0.80307 -1.60615,0 -3.12307,0.98154 -1.42769,0.98153 -2.58769,2.49845 -1.07076,1.42769 -1.78461,3.2123 -0.62461,1.78461 -0.62461,3.39077 0,1.33845 0.26769,2.76614 0.35692,1.33846 1.07077,2.40923 0.71384,1.07077 1.87384,1.78461 1.24923,0.71385 3.03384,0.71385 4.90768,0 7.76306,-2.23077 2.85538,-2.31999 2.85538,-6.06768 z m 8.4769,-11.15382 q -0.62461,-1.33846 -1.33845,-2.40923 -0.71385,-1.07077 -2.05231,-2.14153 -1.24923,-1.07077 -3.2123,-2.32 -1.96307,-1.24923 -5.17537,-3.12307 1.87384,0 3.83691,0.80308 2.05231,0.80307 3.74769,2.23076 1.78461,1.33846 2.94461,3.2123 1.15999,1.78461 1.24922,3.74769 z m -29.44609,21.05842 q -0.62461,0 -1.33846,-0.89231 -0.62461,-0.98154 -1.16,-2.31999 -0.53538,-1.42769 -0.8923,-2.94461 -0.35693,-1.60615 -0.35693,-2.94461 0,-2.23077 0.80308,-3.56923 0.80308,9.10152 3.2123,12.67075 l -0.26769,0 z m 24.09226,1.78461 q -0.17846,0.8923 -0.98154,1.69538 -0.80307,0.80308 -1.96307,1.42769 -1.16,0.62461 -2.49846,1.07077 -1.33846,0.35692 -2.49845,0.35692 -2.40923,0 -2.40923,-1.60615 l 0.98154,0.0892 q 0.17846,0 0.35692,0.0892 0.26769,0 0.44615,0 4.01538,0 8.56614,-3.12307 z m -25.69841,0.17846 q -4.90768,-4.10461 -4.90768,-11.06459 0,-2.05231 0.35692,-3.12307 1.51692,9.36921 4.55076,14.18766 z m 26.23379,-21.5938 q -1.78461,-1.69538 -2.85538,-2.67692 -0.98153,-0.98154 -1.69538,-1.51692 -0.62461,-0.53538 -1.16,-0.80308 -0.53538,-0.35692 -1.33845,-0.71384 l 0.8923,0 q 2.49846,0 4.28307,1.60615 1.87384,1.60615 1.87384,4.10461 z m -0.26769,25.34148 q 0,1.51692 -1.87384,2.40923 -1.87384,0.89231 -3.92615,0.89231 -0.80307,0 -0.8923,-0.0892 l -1.42769,-0.17847 q 5.35383,-1.24922 8.11998,-3.03384 z" />
        <path
           id="path3831"
           style="font-style:normal;font-variant:normal;font-weight:normal;font-stretch:normal;font-family:'Burnstown Dam';-inkscape-font-specification:'Burnstown Dam'"
           d="m 202.05087,302.81436 q 0,1.69538 -1.33846,3.12307 -1.33846,1.33846 -3.39076,2.40923 -1.96307,0.98153 -4.3723,1.60615 -2.31999,0.53538 -4.28307,0.53538 -3.74768,0 -6.69229,-1.60615 -2.94461,-1.60615 -5.08615,-4.3723 -2.0523,-2.85538 -3.2123,-6.60306 -1.07076,-3.83692 -1.07076,-8.29845 0,-4.3723 1.07076,-8.38767 1.16,-4.01538 3.12307,-7.04922 1.96308,-3.03384 4.63999,-4.81845 2.76615,-1.87384 5.97845,-1.87384 4.72923,0 9.72614,3.47999 -0.71385,2.40922 -1.07077,5.2646 -0.35692,2.76615 -0.35692,6.06768 -3.47999,-2.40922 -5.88922,-2.40922 -4.19384,0 -4.19384,6.95998 0,1.60615 0.44616,3.74769 0.44615,2.0523 1.15999,3.92614 0.80308,1.87385 1.78461,3.21231 0.98154,1.24922 2.05231,1.24922 2.40922,0 4.3723,-4.99691 0.8923,0.89231 2.0523,2.40923 1.16,1.42769 2.14154,2.85538 0.98153,1.33845 1.69538,2.40922 0.71384,1.07077 0.71384,1.16 z m -6.33537,4.01538 q 2.40923,-1.42769 3.47999,-2.85538 l -2.23076,1.15999 q -1.24923,0.44616 -1.87384,0.98154 -0.62462,0.44615 -1.24923,0.53538 l -0.0892,-0.26769 q 1.60615,-1.07076 3.03384,-4.01537 -1.51692,0.8923 -2.49846,1.24922 -0.98154,0.35693 -2.23077,0.35693 -0.17846,0 -0.35692,0 -0.17846,-0.0892 -0.26769,-0.0892 l -0.17846,-0.35693 q 0.71384,-0.35692 1.42769,-0.98153 0.71384,-0.62462 1.33846,-1.33846 0.62461,-0.71385 0.98153,-1.51692 0.44616,-0.80308 0.53539,-1.42769 -1.96307,2.85538 -4.55076,2.85538 -1.60615,0 -3.03384,-1.16 -1.33846,-1.16 -2.40923,-3.03384 -0.98153,-1.96307 -1.60615,-4.3723 -0.53538,-2.49846 -0.53538,-5.08614 0,-9.54768 7.49537,-9.54768 0.71384,0 1.33846,0.0892 0.71384,0.0892 1.24922,0.26769 -0.71384,-0.71385 -2.0523,-1.87385 -1.24923,-1.24922 -3.03384,-2.23076 0.71385,-0.17846 0.98154,-0.17846 0.35692,-0.0892 0.44615,-0.0892 0.44615,0 1.07077,0.26769 0.62461,0.26769 1.24923,0.53538 0.62461,0.26769 1.15999,0.53539 0.53539,0.26769 0.80308,0.26769 -0.89231,-0.98154 -1.87384,-1.87384 -0.89231,-0.98154 -2.14154,-1.96308 0.35692,0 0.71385,-0.17846 0.17846,-0.0892 0.26769,-0.0892 0,0.0892 0.44615,0.26769 0.44615,0.17846 1.07077,0.35693 0.62461,0.0892 1.24923,0.17846 0.62461,0.0892 0.8923,0.0892 l 0.17846,0 q -3.83691,-3.12307 -7.13844,-3.12307 -2.67692,0 -4.99692,1.78461 -2.23076,1.78461 -3.92614,4.72922 -1.60615,2.85538 -2.58769,6.60306 -0.89231,3.65846 -0.89231,7.40614 0,4.10461 0.98154,7.5846 1.07077,3.39077 3.03384,5.88922 1.96307,2.40923 4.81845,3.83692 2.85538,1.33846 6.51384,1.33846 2.14153,0 4.99691,-1.51692 z m -12.31382,-4.10461 q -0.71385,0 -1.51692,-0.62462 -0.71385,-0.62461 -1.33846,-1.51692 -0.62462,-0.98153 -1.07077,-2.0523 -0.35692,-1.07077 -0.35692,-1.96307 l 0.17846,-1.33846 0.44615,-0.0892 q 0.80308,2.67692 1.78462,4.55076 1.07076,1.78461 2.31999,2.85538 l -0.44615,0.17846 z m 1.60615,-2.0523 q -0.0892,0.0892 -0.62462,0.0892 -1.15999,0 -2.14153,-1.69539 -0.89231,-1.69538 -0.89231,-3.56922 0,-0.35692 0.44616,-1.87384 0.53538,1.87384 0.8923,3.03384 0.35693,1.16 0.71385,1.87384 0.35692,0.62462 0.71384,1.07077 0.35692,0.35692 0.89231,0.80307 l 0,0.2677 z" />
        <path
           id="path3833"
           style="font-style:normal;font-variant:normal;font-weight:normal;font-stretch:normal;font-family:'Burnstown Dam';-inkscape-font-specification:'Burnstown Dam'"
           d="m 243.38973,282.02363 -18.20304,1.60615 0,3.74769 10.97536,0 -0.53538,12.67074 -10.61844,-0.62461 0,2.31999 13.1169,3.12307 -2.05231,10.43998 q -9.72613,-1.78461 -19.45227,-1.78461 -1.60615,0 -3.12307,0.0892 -1.42769,0.0892 -2.94461,0.17846 l 0.17847,-2.14153 -7.94153,-1.51692 2.05231,-11.42152 6.15691,0.44616 0,-14.2769 -5.62153,0 1.33846,-13.1169 5.08614,0.17846 0,-2.31999 12.58152,0 1.33846,1.60615 14.9015,0 2.76615,10.7969 z m -20.61226,-9.99382 -1.60615,4.37229 -1.42769,-5.17537 -1.51692,0 -1.69539,2.0523 -2.58768,-2.31999 0,39.61838 1.87384,-7.13845 0.80307,7.40614 1.51693,-0.0892 1.33845,-6.4246 0.89231,6.24614 2.23076,-1.42769 0.17847,-37.11992 z m 18.20304,8.4769 -0.71385,-1.96307 -4.3723,-0.62462 4.10461,-1.15999 -0.26769,-1.33846 -4.72922,-0.35692 4.55076,-2.23077 -14.00921,0 0,9.19075 15.4369,-1.51692 z m -15.4369,22.93226 -2.0523,8.20922 11.42152,1.87384 q -1.07077,-0.71384 -1.69539,-1.33846 -0.53538,-0.53538 -0.71384,-0.98154 l 3.12307,0 q -0.35692,-0.26769 -1.33846,-0.71384 -0.8923,-0.53538 -2.49845,-1.24923 l 0.17846,0 q 2.23076,0 3.12307,-0.53538 0.8923,-0.62462 1.51692,-2.49846 l -11.0646,-2.76615 z m 8.83383,-8.38767 -3.83691,-1.24923 3.74768,-0.98154 0,-3.83691 -8.7446,0 0,8.38767 7.94153,0.26769 -3.56923,-1.33845 4.46153,-1.24923 z m -23.37841,5.53229 -4.55076,0 -1.78461,7.94153 5.88921,1.42769 0.44616,-9.36922 z m 0.26769,-17.48919 -0.71385,-9.45844 -2.31999,0 -0.89231,9.45844 3.92615,0 z m 8.20921,-5.26461 q 0,1.33846 -1.69538,2.14154 l 0,-2.40923 1.51692,0 0.17846,0.26769 z m -1.07076,14.54459 -0.35693,-0.17846 q -0.53538,-0.44615 -1.24922,-1.69538 l 0.62461,-0.71385 0.35692,0.35693 q 0.26769,0.0892 0.53539,0.62461 0.26769,0.44615 0.71384,1.07077 l -0.62461,0.53538 z" />
        <path
           id="path3835"
           style="font-style:normal;font-variant:normal;font-weight:normal;font-stretch:normal;font-family:'Burnstown Dam';-inkscape-font-specification:'Burnstown Dam'"
           d="m 285.61114,310.2205 q -0.53539,-0.0892 -0.98154,-0.0892 -0.35692,-0.0892 -0.53538,-0.0892 -1.07077,0 -2.58769,0.71384 -1.51692,0.62462 -2.94461,1.33846 -1.42769,0.80308 -2.40923,1.42769 -0.98153,0.71384 -0.98153,0.71384 0,-1.15999 -0.80308,-2.85537 -0.71384,-1.78462 -2.14153,-4.01538 -3.65846,0.71384 -6.51384,0.98154 -2.85537,0.26769 -4.99691,0.26769 -0.53538,1.24923 -1.24923,3.12307 -0.71384,1.87384 -1.87384,4.3723 -0.53538,-0.17846 -1.51692,-0.53539 -0.8923,-0.35692 -1.87384,-0.80307 -0.98154,-0.35692 -1.96307,-0.71385 -0.98154,-0.26769 -1.51692,-0.26769 -1.24923,0 -2.14154,0.44615 0,-0.44615 -0.35692,-1.07076 -0.35692,-0.62462 -0.80308,-1.24923 -0.44615,-0.62461 -0.80307,-1.07077 -0.35692,-0.53538 -0.35692,-0.62461 -1.51692,-4.10461 -1.51692,-12.58152 0.0892,0 0.80307,0 0.71385,-0.0892 1.69538,-0.26769 0.98154,-0.17846 2.05231,-0.44615 1.07076,-0.26769 1.87384,-0.80308 0.35692,-0.17846 0.98153,-1.60615 0.62462,-1.42769 1.33846,-3.39076 0.80308,-2.0523 1.51692,-4.3723 0.71385,-2.31999 1.33846,-4.3723 0.62462,-2.0523 0.98154,-3.47999 0.35692,-1.51692 0.35692,-1.87384 0,-0.35692 -0.26769,-1.07077 -0.26769,-0.80307 -0.53538,-1.69538 -0.2677,-0.98154 -0.53539,-1.78461 -0.26769,-0.89231 -0.26769,-1.42769 1.07077,0 2.23077,-0.35692 1.24922,-0.35693 2.23076,-0.98154 1.07077,-0.71384 1.69538,-1.51692 0.62462,-0.89231 0.62462,-1.96307 0,-0.71385 -0.0892,-0.80308 4.99691,0.80308 10.35074,5.97845 l 1.87385,-0.35692 q -0.62462,1.51692 -1.33846,3.74768 -0.62462,2.23077 -1.60615,5.08615 1.33846,1.60615 3.39076,5.62152 2.0523,3.92615 4.63999,10.35075 l 3.83692,0 q 0.80307,0 0.98153,-0.0892 0.26769,1.07077 0.53539,3.2123 0.26769,2.05231 0.44615,4.28307 0.17846,2.23077 0.35692,4.10461 0.17846,1.78461 0.35692,2.31999 l -0.98153,0.53539 z m -13.74151,-36.31685 q 0,-1.24923 -0.80308,-2.32 -2.32,1.07077 -4.19384,3.12307 0.26769,-0.98153 0.71385,-2.0523 0.53538,-1.07077 1.24923,-2.14153 l -2.14154,-1.07077 -3.12307,4.55076 q 0.44615,-0.98154 0.89231,-2.14154 0.44615,-1.24922 1.33846,-2.85537 l -1.07077,-0.53539 q -1.33846,2.94461 -2.40923,5.5323 -0.98153,2.49845 -2.0523,5.17537 -1.07077,2.58769 -2.23077,5.5323 -1.07076,2.94461 -2.40922,6.69229 -1.33846,3.65846 -3.12307,8.38768 -1.69538,4.63999 -4.01538,10.70767 l 1.78461,0.35692 3.12307,-6.06768 0,0.71385 q 0,1.15999 -0.17846,2.67691 -0.0892,1.51692 -0.44615,3.39077 l 3.30153,-5.17538 -0.71384,6.51384 1.07076,0.71384 q 0.89231,-2.31999 4.63999,-12.04613 3.74769,-9.72613 10.79691,-27.66148 z m 11.42151,33.63993 -11.59998,-25.51995 q -4.01537,5.88922 -4.01537,8.92306 0,1.51692 1.16,4.63999 1.15999,3.12307 2.76614,6.33537 1.69539,3.2123 3.48,5.62153 1.87384,2.40923 3.2123,2.49846 l -2.05231,-3.83692 4.01538,2.23077 q -0.44615,-0.80308 -0.44615,-1.60615 l 0,-0.98154 q 1.42769,1.87384 2.76615,2.58769 l 0.71384,-0.89231 z m -11.9569,-3.12307 q -1.69538,-0.0892 -5.53229,-0.98154 0.71384,-0.17846 1.78461,-0.35692 1.07076,-0.26769 2.58768,-0.53538 -1.51692,-0.89231 -3.65845,-1.42769 1.78461,-0.53539 1.78461,-1.51692 0,-0.35692 -1.24923,-0.53539 -1.15999,-0.17846 -1.87384,-0.17846 l -0.53538,0 q -2.32,4.72922 -3.12307,7.76306 2.23076,0 4.72922,-0.17846 2.49845,-0.26769 5.08614,-0.80307 l 0,-1.24923 z m 12.13536,-6.78153 -2.31999,0 2.14153,6.51384 0.17846,-6.51384 z m -33.46147,1.87385 -2.58769,0.26769 q 0.17846,2.0523 0.2677,3.39076 0.17846,1.33846 0.17846,1.87384 l 0,0.35693 2.14153,-5.88922 z m 11.59998,-28.10764 -3.30153,1.24923 1.24922,3.03384 2.05231,-4.28307 z m 6.24614,26.23379 -1.51692,-4.01537 -1.42769,3.30153 2.94461,0.71384 z m 9.10152,3.65846 q 0,1.07077 -0.89231,1.07077 -0.80307,-0.35693 -0.80307,-1.07077 0,-0.98154 0.80307,-0.98154 0.89231,0.35693 0.89231,0.98154 z m -20.07688,0.71384 q 0,1.07077 -0.80308,1.07077 -0.71384,-0.35692 -0.71384,-1.07077 0,-0.8923 0.71384,-0.8923 0.80308,0.35692 0.80308,0.8923 z m 8.92306,-24.09226 q 0,0.80308 -0.71385,0.80308 -0.62461,-0.26769 -0.62461,-0.80308 0,-0.80307 0.62461,-0.80307 0.71385,0.26769 0.71385,0.80307 z" />
        <path
           id="path3837"
           style="font-style:normal;font-variant:normal;font-weight:normal;font-stretch:normal;font-family:'Burnstown Dam';-inkscape-font-specification:'Burnstown Dam'"
           d="m 338.09128,302.90359 -3.39076,2.94461 q 0,1.96307 0,4.01538 0.0892,2.0523 0.0892,3.92614 l -13.83074,-1.42769 -0.26769,-2.85538 -12.84921,-12.49228 q 0.26769,3.74769 0.35692,7.5846 0.0892,3.83692 0.26769,7.5846 -0.62461,0.17846 -1.51692,0.26769 -0.80307,0.0892 -1.78461,0.0892 -0.80307,0 -1.78461,-0.17846 -0.98154,-0.17846 -2.23076,-0.26769 l -2.85538,-0.44615 -2.14154,0 -2.85538,-26.41226 q -1.15999,-1.24923 -2.49845,-2.40922 -1.24923,-1.16 -2.49846,-2.32 l 4.19384,-4.72922 q 0.0892,-1.60615 0.17846,-3.30153 0.17846,-1.78461 0.17846,-3.39076 l 14.09843,-0.44616 0.71385,7.76306 12.8492,13.02767 q 0.2677,-4.90768 0.35693,-9.81536 0.0892,-4.99692 0.26769,-9.9046 l 14.36612,1.33846 -0.8923,28.0184 3.47999,3.83692 z m -4.81845,-28.82148 -4.28307,-1.42769 q 0,1.96307 -0.0892,3.74768 0,1.69539 0,3.56923 l -0.35692,0 -1.16,-6.33537 -1.24923,5.35383 -0.26769,0 -0.98154,-6.15691 q -0.62461,-0.17846 -1.07076,-0.17846 -0.35693,-0.0892 -1.07077,-0.26769 0.17846,2.40922 0.17846,4.81845 0,2.32 0,4.72922 l 0,18.3815 q 0,2.23077 0,4.55076 0,2.32 0.0892,4.81845 0.0892,0.0892 0.26769,0.0892 0.17846,0 0.17846,0.0892 l 0.62462,0.0892 q 0.26769,-1.16 0.35692,-2.32 0.0892,-1.16 0.26769,-2.31999 l 0.26769,0 1.33846,4.90768 q 0.53539,0.0892 0.89231,0.17846 0.44615,0.0892 0.80307,0.0892 l 0.35693,-6.15691 0.26769,0 1.60615,6.15691 2.49845,0.35692 0.53539,-36.763 z m -27.1261,35.603 0,-16.68612 q 0,-8.92305 -0.53538,-14.36612 -0.53539,-5.44307 -1.42769,-7.31691 -0.71385,-0.0892 -1.24923,-0.17846 -0.53539,-0.0892 -1.16,-0.0892 -0.26769,1.51692 -0.53538,3.2123 -0.2677,1.69538 -0.35693,3.30153 l -0.35692,0 -0.8923,-5.88922 q -0.2677,0 -0.2677,0 0,-0.0892 -0.26769,-0.0892 -0.17846,2.05231 -0.44615,4.01538 -0.26769,1.96307 -0.53538,4.01538 l -0.35693,0 -1.60615,-8.29845 q -0.17846,0.17846 -0.44615,0.17846 -0.17846,-0.0892 -0.35692,0.0892 0.71384,9.19075 1.42769,18.91689 0.80307,9.6369 1.42769,18.91688 0.26769,0 0.44615,0 0.17846,-0.0892 0.35692,-0.0892 l 0.89231,-6.95998 0.35692,0 0.80308,5.88922 0.98153,-3.92615 0.35692,0 0.98154,5.35383 2.76615,0 z m 14.90151,-2.40922 -0.26769,-14.81228 q -3.12307,-3.39076 -6.33538,-6.60306 -3.12307,-3.30153 -6.24614,-6.6923 l 0,4.46153 q 1.16,1.60615 2.23077,3.48 1.07076,1.87384 2.23076,3.39076 l -0.35692,0.26769 -4.28307,-3.92615 q 0,2.05231 1.42769,3.56923 1.51692,1.42769 2.85538,2.94461 l 0,0.0892 -4.46153,-2.32 q 0,0.71385 -0.0892,1.42769 0,0.71385 0,1.42769 l 13.29536,13.29536 z M 292.9406,282.38055 q 0,-1.15999 -0.0892,-2.14153 0,-0.98154 0,-1.96307 -0.44615,0.35692 -1.16,0.98153 -0.71384,0.53539 -1.07076,0.89231 l 2.31999,2.23076 z m 9.99383,-0.26769 q 0,0.53539 -0.80308,1.07077 -0.8923,-0.44615 -0.8923,-1.07077 0,-0.53538 0.8923,-0.98153 0.80308,0.44615 0.80308,0.98153 z m 25.43072,20.25535 -0.80308,0.80307 -0.80307,-0.80307 0.80307,-0.89231 0.80308,0.89231 z m 7.49537,0.35692 -1.42769,-1.24923 q 0.17846,0.53538 0.26769,0.98154 0.0892,0.44615 0.17846,1.07076 l 0.98154,-0.80307 z" />
        <path
           id="path3839"
           style="font-style:normal;font-variant:normal;font-weight:normal;font-stretch:normal;font-family:'Burnstown Dam';-inkscape-font-specification:'Burnstown Dam'"
           d="m 379.9474,323.42663 -19.45227,-20.25535 -0.44616,9.27998 -17.13227,0.80308 1.78461,-15.1692 -4.3723,-13.20613 6.06768,-1.42769 0.98154,-8.11998 -7.49537,0.35692 q 0,-3.65845 -0.0892,-7.22768 -0.0892,-3.56922 -0.0892,-7.31691 2.85538,-0.17846 4.99691,-0.35692 2.23077,-0.26769 3.83692,-0.71384 l 0.62461,-3.39077 14.99074,0 0,2.58769 q 4.10461,0.0892 7.49537,1.60615 3.39076,1.42769 5.71076,3.92615 2.40923,2.49845 3.65845,5.88922 1.33846,3.39076 1.33846,7.31691 0,4.90768 -2.14153,9.01228 -2.05231,4.01538 -6.06768,5.97845 l 17.57842,21.50458 -11.77843,8.92306 z m -18.29227,-64.51372 -2.40923,0 -1.42769,7.76306 0,-7.5846 -2.67692,-0.35692 -1.42769,8.20921 -1.07076,-8.4769 -1.87385,-0.0892 -5.71075,53.27066 3.2123,-0.26769 1.15999,-7.49537 0.44616,6.95998 2.58768,0 1.24923,-6.06768 0.26769,5.26461 4.01538,0.71384 3.65846,-51.84297 z m 18.47073,18.29227 q 0,-3.47999 -1.16,-6.33537 -1.16,-2.85538 -3.30153,-4.90768 -2.05231,-2.14154 -4.90768,-3.30154 -2.76615,-1.15999 -5.97845,-1.15999 l -1.07077,0 -0.44615,10.17228 q 3.74768,0 6.06768,1.60615 2.40922,1.51692 2.40922,4.3723 0,2.40923 -2.0523,4.01538 -1.96307,1.51692 -7.40614,3.12307 l -0.26769,2.0523 q 7.49537,-0.35692 9.27998,-2.40922 l 0.0892,0.0892 q 0,2.31999 -9.19075,4.01537 l -0.17846,1.78462 q 3.39076,-0.17846 5.71076,-0.53539 2.40922,-0.44615 4.19383,-1.24923 -1.33846,2.23077 -10.70767,3.03384 l 0.0892,2.14154 3.83692,0.0892 q 3.2123,0.0892 5.88922,-1.16 2.76615,-1.33846 4.72922,-3.56922 2.0523,-2.23077 3.2123,-5.26461 1.16,-3.12307 1.16,-6.60306 z m 8.29844,37.03069 -15.97227,-19.71996 q -4.01538,1.33846 -11.24306,1.33846 l 0,4.55076 19.45227,19.80919 2.32,-1.60615 -2.14154,-3.2123 3.12307,2.67692 1.69538,-1.33846 -2.76614,-2.58769 3.56922,1.24923 1.96307,-1.16 z m -47.02452,-52.11066 -0.0892,4.46153 4.01538,1.16 -4.01538,1.07076 0.0892,1.78462 3.74769,0 -3.74769,1.69538 0,1.96307 6.33537,-0.35692 q 0.17846,-3.74769 0.35693,-6.95999 0.17846,-3.2123 0.17846,-5.44306 l -6.87076,0.62461 z m 27.66148,15.52612 q 0,-3.74768 -5.79998,-3.74768 l -1.24923,8.20921 q 3.65845,-0.0892 5.35383,-1.33846 1.69538,-1.33846 1.69538,-3.12307 z m -23.02149,7.13845 -3.92614,0.89231 2.85537,8.74459 0.44616,-0.0892 0.62461,-9.54767 z m 9.10152,3.12307 -0.44615,0.53538 -0.98154,-1.07076 0.53539,-0.53539 0.8923,1.07077 z m 1.24923,-18.91688 q -0.26769,0.0892 -0.35692,0.26769 -0.0892,0.17846 -0.17846,0.26769 -0.17846,-0.0892 -0.35693,-0.26769 -0.17846,-0.17846 -0.35692,-0.26769 l 0.71385,-0.35693 0.53538,0.35693 z" />
        <path
           id="path3841"
           style="font-style:normal;font-variant:normal;font-weight:normal;font-stretch:normal;font-family:'Burnstown Dam';-inkscape-font-specification:'Burnstown Dam'"
           d="m 430.15633,272.02981 q -0.35692,3.30153 -0.62462,6.4246 -0.26769,3.03384 -0.26769,5.97845 l 0,5.62152 q -2.85538,25.51995 -20.34457,25.51995 -4.90769,0 -8.47691,-1.33846 -3.56922,-1.24922 -5.88922,-4.19383 -2.31999,-2.94461 -3.47999,-7.5846 -1.07077,-4.72922 -1.07077,-11.42152 0,-0.98154 0.17846,-3.47999 0.17846,-2.58769 0.17846,-7.13845 l 0,-8.47691 q 0,-0.8923 -0.0892,-0.98153 l 14.00921,-1.33846 q 0.0892,0.98154 0.17846,2.23076 0.0892,1.24923 0.0892,2.49846 0,0.98154 -0.0892,3.12307 -0.0892,2.05231 -0.17846,4.3723 -0.0892,2.23077 -0.17846,4.28307 -0.0892,2.0523 -0.0892,3.03384 0,10.35075 4.90769,10.35075 3.56922,0 5.17537,-6.95999 1.60615,-7.04922 1.60615,-22.03995 l 0,-1.51692 14.09844,-1.33846 q 0.17846,1.33846 0.35692,2.23076 0.17846,0.89231 0.17846,1.51692 l -0.17846,0.62462 z m -2.40923,2.23076 q 0,-1.24923 -0.0892,-2.40923 0,-1.15999 -0.0892,-2.14153 l -1.07077,0 -1.69538,6.87076 q -0.17846,1.07076 -0.26769,1.33845 l -0.35692,0 0.0892,-7.76306 q -0.0892,0.0892 -0.71385,0.0892 -0.44615,0 -0.44615,-0.0892 -0.53538,0.89231 -0.98154,2.40923 -0.35692,1.51692 -0.80307,3.65845 l -0.26769,0 q -0.35692,-1.60615 -0.44616,-2.85538 0,-1.33845 0,-2.31999 l 0,-0.89231 q -0.71384,0.0892 -1.33845,0.17846 -0.62462,0.0892 -1.33846,0.2677 0.26769,2.94461 0.26769,6.15691 0,25.43072 -9.27998,25.43072 -7.31691,0 -7.31691,-14.18767 0,-0.8923 0.0892,-2.76615 0.0892,-1.96307 0.17846,-4.1046 0.0892,-2.14154 0.17846,-4.10461 0.0892,-1.96307 0.0892,-2.85538 l 0,-1.78461 q 0,-0.98154 -0.8923,-0.98154 -0.53539,0 -1.33846,0.17846 -0.71385,0.17846 -1.69538,0.35692 l -0.35693,8.29845 -0.26769,0 -1.60615,-7.67383 q -0.44615,0 -0.71384,0.0892 -0.17846,0 -0.62462,0 0.0892,2.0523 0.17846,4.01538 0.17847,1.87384 0.44616,3.92614 l -0.35693,0 -1.60615,-7.85229 -0.26769,0.35692 -0.0892,1.96308 q -0.0892,0.8923 -0.17846,1.96307 0,0.98154 0,1.96307 l 0,0.98154 q 0,1.24923 -0.0892,2.14153 -0.0892,0.80308 -0.0892,1.60615 l 0,3.12307 q 0,6.95999 0.8923,11.9569 0.89231,4.90769 2.58769,8.03076 1.78461,3.03384 4.3723,4.46153 2.58769,1.42768 6.06768,1.42768 4.55076,0 7.76306,-0.8923 3.2123,-0.80308 5.35384,-2.58769 2.23076,-1.78461 3.56922,-4.63999 1.42769,-2.94461 2.32,-7.04922 1.15999,-6.4246 1.69538,-12.22459 0.53538,-5.79998 0.53538,-11.06459 z m -13.83074,32.56917 q -2.14153,1.42769 -5.08614,1.42769 -2.76615,0 -3.83692,-1.87385 1.96307,0.80308 4.28307,0.80308 2.76615,0 4.46153,-0.71385 l 0.17846,0.35693 z m -0.98154,-2.40923 q -1.60615,1.33846 -4.46153,1.33846 -2.58768,0 -3.65845,-1.42769 0.98154,0.35692 2.85538,0.35692 0.80307,0 2.0523,-0.17846 1.24923,-0.17846 3.12307,-0.35692 l 0.0892,0.26769 z" />
        <path
           id="path3843"
           style="font-style:normal;font-variant:normal;font-weight:normal;font-stretch:normal;font-family:'Burnstown Dam';-inkscape-font-specification:'Burnstown Dam'"
           d="m 482.04532,302.90359 -3.39076,2.94461 q 0,1.96307 0,4.01538 0.0892,2.0523 0.0892,3.92614 l -13.83074,-1.42769 -0.26769,-2.85538 -12.84921,-12.49228 q 0.26769,3.74769 0.35692,7.5846 0.0892,3.83692 0.26769,7.5846 -0.62461,0.17846 -1.51692,0.26769 -0.80307,0.0892 -1.78461,0.0892 -0.80307,0 -1.78461,-0.17846 -0.98154,-0.17846 -2.23076,-0.26769 l -2.85538,-0.44615 -2.14154,0 -2.85538,-26.41226 q -1.15999,-1.24923 -2.49845,-2.40922 -1.24923,-1.16 -2.49846,-2.32 l 4.19384,-4.72922 q 0.0892,-1.60615 0.17846,-3.30153 0.17846,-1.78461 0.17846,-3.39076 l 14.09843,-0.44616 0.71385,7.76306 12.8492,13.02767 q 0.2677,-4.90768 0.35693,-9.81536 0.0892,-4.99692 0.26769,-9.9046 l 14.36612,1.33846 -0.8923,28.0184 3.47999,3.83692 z m -4.81845,-28.82148 -4.28307,-1.42769 q 0,1.96307 -0.0892,3.74768 0,1.69539 0,3.56923 l -0.35692,0 -1.16,-6.33537 -1.24923,5.35383 -0.26769,0 -0.98154,-6.15691 q -0.62461,-0.17846 -1.07076,-0.17846 -0.35693,-0.0892 -1.07077,-0.26769 0.17846,2.40922 0.17846,4.81845 0,2.32 0,4.72922 l 0,18.3815 q 0,2.23077 0,4.55076 0,2.32 0.0892,4.81845 0.0892,0.0892 0.26769,0.0892 0.17846,0 0.17846,0.0892 l 0.62462,0.0892 q 0.26769,-1.16 0.35692,-2.32 0.0892,-1.16 0.26769,-2.31999 l 0.26769,0 1.33846,4.90768 q 0.53539,0.0892 0.89231,0.17846 0.44615,0.0892 0.80307,0.0892 l 0.35693,-6.15691 0.26769,0 1.60615,6.15691 2.49846,0.35692 0.53538,-36.763 z m -27.1261,35.603 0,-16.68612 q 0,-8.92305 -0.53538,-14.36612 -0.53539,-5.44307 -1.42769,-7.31691 -0.71385,-0.0892 -1.24923,-0.17846 -0.53539,-0.0892 -1.16,-0.0892 -0.26769,1.51692 -0.53538,3.2123 -0.26769,1.69538 -0.35693,3.30153 l -0.35692,0 -0.8923,-5.88922 q -0.2677,0 -0.2677,0 0,-0.0892 -0.26769,-0.0892 -0.17846,2.05231 -0.44615,4.01538 -0.26769,1.96307 -0.53538,4.01538 l -0.35693,0 -1.60615,-8.29845 q -0.17846,0.17846 -0.44615,0.17846 -0.17846,-0.0892 -0.35692,0.0892 0.71384,9.19075 1.42769,18.91689 0.80307,9.6369 1.42769,18.91688 0.26769,0 0.44615,0 0.17846,-0.0892 0.35692,-0.0892 l 0.89231,-6.95998 0.35692,0 0.80308,5.88922 0.98153,-3.92615 0.35692,0 0.98154,5.35383 2.76615,0 z m 14.90151,-2.40922 -0.26769,-14.81228 q -3.12307,-3.39076 -6.33538,-6.60306 -3.12307,-3.30153 -6.24614,-6.6923 l 0,4.46153 q 1.16,1.60615 2.23077,3.48 1.07076,1.87384 2.23076,3.39076 l -0.35692,0.26769 -4.28307,-3.92615 q 0,2.05231 1.42769,3.56923 1.51692,1.42769 2.85538,2.94461 l 0,0.0892 -4.46153,-2.32 q 0,0.71385 -0.0892,1.42769 0,0.71385 0,1.42769 l 13.29536,13.29536 z m -28.10764,-24.89534 q 0,-1.15999 -0.0892,-2.14153 0,-0.98154 0,-1.96307 -0.44615,0.35692 -1.16,0.98153 -0.71384,0.53539 -1.07076,0.89231 l 2.31999,2.23076 z m 9.99383,-0.26769 q 0,0.53539 -0.80308,1.07077 -0.8923,-0.44615 -0.8923,-1.07077 0,-0.53538 0.8923,-0.98153 0.80308,0.44615 0.80308,0.98153 z m 25.43072,20.25535 -0.80308,0.80307 -0.80307,-0.80307 0.80307,-0.89231 0.80308,0.89231 z m 7.49537,0.35692 -1.42769,-1.24923 q 0.17846,0.53538 0.26769,0.98154 0.0892,0.44615 0.17846,1.07076 l 0.98154,-0.80307 z" />
        <path
           id="path3845"
           style="font-style:normal;font-variant:normal;font-weight:normal;font-stretch:normal;font-family:'Burnstown Dam';-inkscape-font-specification:'Burnstown Dam'"
           d="m 533.80603,302.90359 -3.39076,2.94461 q 0,1.96307 0,4.01538 0.0892,2.0523 0.0892,3.92614 l -13.83074,-1.42769 -0.26769,-2.85538 -12.84921,-12.49228 q 0.26769,3.74769 0.35692,7.5846 0.0892,3.83692 0.2677,7.5846 -0.62462,0.17846 -1.51692,0.26769 -0.80308,0.0892 -1.78462,0.0892 -0.80307,0 -1.78461,-0.17846 -0.98153,-0.17846 -2.23076,-0.26769 l -2.85538,-0.44615 -2.14154,0 -2.85537,-26.41226 q -1.16,-1.24923 -2.49846,-2.40922 -1.24923,-1.16 -2.49846,-2.32 l 4.19384,-4.72922 q 0.0892,-1.60615 0.17846,-3.30153 0.17846,-1.78461 0.17846,-3.39076 l 14.09844,-0.44616 0.71384,7.76306 12.84921,13.02767 q 0.26769,-4.90768 0.35692,-9.81536 0.0892,-4.99692 0.26769,-9.9046 l 14.36613,1.33846 -0.89231,28.0184 3.47999,3.83692 z m -4.81845,-28.82148 -4.28307,-1.42769 q 0,1.96307 -0.0892,3.74768 0,1.69539 0,3.56923 l -0.35692,0 -1.16,-6.33537 -1.24923,5.35383 -0.26769,0 -0.98153,-6.15691 q -0.62462,-0.17846 -1.07077,-0.17846 -0.35692,-0.0892 -1.07077,-0.26769 0.17846,2.40922 0.17846,4.81845 0,2.32 0,4.72922 l 0,18.3815 q 0,2.23077 0,4.55076 0,2.32 0.0892,4.81845 0.0892,0.0892 0.26769,0.0892 0.17847,0 0.17847,0.0892 l 0.62461,0.0892 q 0.26769,-1.16 0.35692,-2.32 0.0892,-1.16 0.26769,-2.31999 l 0.2677,0 1.33845,4.90768 q 0.53539,0.0892 0.89231,0.17846 0.44615,0.0892 0.80308,0.0892 l 0.35692,-6.15691 0.26769,0 1.60615,6.15691 2.49846,0.35692 0.53538,-36.763 z m -27.1261,35.603 0,-16.68612 q 0,-8.92305 -0.53538,-14.36612 -0.53539,-5.44307 -1.42769,-7.31691 -0.71385,-0.0892 -1.24923,-0.17846 -0.53538,-0.0892 -1.16,-0.0892 -0.26769,1.51692 -0.53538,3.2123 -0.26769,1.69538 -0.35692,3.30153 l -0.35693,0 -0.8923,-5.88922 q -0.26769,0 -0.26769,0 0,-0.0892 -0.2677,-0.0892 -0.17846,2.05231 -0.44615,4.01538 -0.26769,1.96307 -0.53538,4.01538 l -0.35692,0 -1.60616,-8.29845 q -0.17846,0.17846 -0.44615,0.17846 -0.17846,-0.0892 -0.35692,0.0892 0.71384,9.19075 1.42769,18.91689 0.80307,9.6369 1.42769,18.91688 0.26769,0 0.44615,0 0.17846,-0.0892 0.35692,-0.0892 l 0.89231,-6.95998 0.35692,0 0.80308,5.88922 0.98153,-3.92615 0.35693,0 0.98153,5.35383 2.76615,0 z m 14.90151,-2.40922 -0.26769,-14.81228 q -3.12307,-3.39076 -6.33537,-6.60306 -3.12307,-3.30153 -6.24615,-6.6923 l 0,4.46153 q 1.16,1.60615 2.23077,3.48 1.07077,1.87384 2.23076,3.39076 l -0.35692,0.26769 -4.28307,-3.92615 q 0,2.05231 1.42769,3.56923 1.51692,1.42769 2.85538,2.94461 l 0,0.0892 -4.46153,-2.32 q 0,0.71385 -0.0892,1.42769 0,0.71385 0,1.42769 l 13.29536,13.29536 z m -28.10764,-24.89534 q 0,-1.15999 -0.0892,-2.14153 0,-0.98154 0,-1.96307 -0.44615,0.35692 -1.15999,0.98153 -0.71385,0.53539 -1.07077,0.89231 l 2.31999,2.23076 z m 9.99383,-0.26769 q 0,0.53539 -0.80308,1.07077 -0.8923,-0.44615 -0.8923,-1.07077 0,-0.53538 0.8923,-0.98153 0.80308,0.44615 0.80308,0.98153 z m 25.43072,20.25535 -0.80308,0.80307 -0.80307,-0.80307 0.80307,-0.89231 0.80308,0.89231 z m 7.49537,0.35692 -1.42769,-1.24923 q 0.17846,0.53538 0.26769,0.98154 0.0892,0.44615 0.17846,1.07076 l 0.98154,-0.80307 z" />
        <path
           id="path3847"
           style="font-style:normal;font-variant:normal;font-weight:normal;font-stretch:normal;font-family:'Burnstown Dam';-inkscape-font-specification:'Burnstown Dam'"
           d="m 575.216,282.02363 -18.20304,1.60615 0,3.74769 10.97536,0 -0.53539,12.67074 -10.61844,-0.62461 0,2.31999 13.1169,3.12307 -2.0523,10.43998 q -9.72614,-1.78461 -19.45227,-1.78461 -1.60615,0 -3.12307,0.0892 -1.42769,0.0892 -2.94461,0.17846 l 0.17846,-2.14153 -7.94152,-1.51692 2.0523,-11.42152 6.15691,0.44616 0,-14.2769 -5.62153,0 1.33846,-13.1169 5.08615,0.17846 0,-2.31999 12.58151,0 1.33846,1.60615 14.90151,0 2.76615,10.7969 z m -20.61227,-9.99382 -1.60615,4.37229 -1.42769,-5.17537 -1.51692,0 -1.69538,2.0523 -2.58769,-2.31999 0,39.61838 1.87384,-7.13845 0.80308,7.40614 1.51692,-0.0892 1.33846,-6.4246 0.8923,6.24614 2.23077,-1.42769 0.17846,-37.11992 z m 18.20304,8.4769 -0.71385,-1.96307 -4.37229,-0.62462 4.1046,-1.15999 -0.26769,-1.33846 -4.72922,-0.35692 4.55076,-2.23077 -14.0092,0 0,9.19075 15.43689,-1.51692 z m -15.43689,22.93226 -2.05231,8.20922 11.42152,1.87384 q -1.07077,-0.71384 -1.69538,-1.33846 -0.53539,-0.53538 -0.71385,-0.98154 l 3.12307,0 q -0.35692,-0.26769 -1.33845,-0.71384 -0.89231,-0.53538 -2.49846,-1.24923 l 0.17846,0 q 2.23076,0 3.12307,-0.53538 0.89231,-0.62462 1.51692,-2.49846 l -11.06459,-2.76615 z m 8.83383,-8.38767 -3.83692,-1.24923 3.74769,-0.98154 0,-3.83691 -8.7446,0 0,8.38767 7.94152,0.26769 -3.56922,-1.33845 4.46153,-1.24923 z m -23.37842,5.53229 -4.55076,0 -1.78461,7.94153 5.88922,1.42769 0.44615,-9.36922 z m 0.26769,-17.48919 -0.71384,-9.45844 -2.32,0 -0.8923,9.45844 3.92614,0 z m 8.20922,-5.26461 q 0,1.33846 -1.69538,2.14154 l 0,-2.40923 1.51692,0 0.17846,0.26769 z m -1.07077,14.54459 -0.35692,-0.17846 q -0.53539,-0.44615 -1.24923,-1.69538 l 0.62461,-0.71385 0.35693,0.35693 q 0.26769,0.0892 0.53538,0.62461 0.26769,0.44615 0.71384,1.07077 l -0.62461,0.53538 z" />
        <path
           id="path3849"
           style="font-style:normal;font-variant:normal;font-weight:normal;font-stretch:normal;font-family:'Burnstown Dam';-inkscape-font-specification:'Burnstown Dam'"
           d="m 610.83434,321.46355 -16.86459,-17.48919 -0.44615,7.76306 -15.07997,0.98153 1.60615,-13.56304 -4.01537,-11.68921 5.35383,-1.16 0.98154,-6.69229 -6.60307,0.35692 -0.0892,-13.02767 q 2.32,-0.0892 4.19384,-0.35692 1.87384,-0.35692 3.39076,-0.71385 l 0.53539,-2.9446 13.47382,0.35692 0,1.96307 q 3.56922,0.0892 6.4246,1.42769 2.94461,1.24923 4.99691,3.47999 2.05231,2.14154 3.2123,5.17538 1.16,2.94461 1.16,6.51383 0,9.99383 -7.13845,13.02767 2.76615,3.47999 6.51384,8.11998 3.83691,4.55076 8.74459,10.43998 l -10.35074,8.03075 z m -16.15074,-56.21527 -1.78461,0 -1.60615,9.27998 0.26769,-9.19075 -2.14154,-0.26769 -1.51692,8.03075 -0.98153,-8.29844 -1.42769,-0.17846 -4.81845,46.22144 2.31999,-0.26769 1.42769,-8.03075 0.17846,7.5846 2.14154,0 1.15999,-6.15691 0.44616,5.44306 3.2123,0.62462 3.12307,-44.79376 z m 16.15074,15.70458 q 0,-2.9446 -0.98154,-5.35383 -0.98154,-2.49846 -2.76615,-4.28307 -1.69538,-1.78461 -4.19384,-2.76615 -2.40922,-1.07076 -5.2646,-1.07076 l -0.80308,0.0892 -0.44615,8.38767 q 7.31691,0 7.31691,5.35384 0,3.83691 -8.11998,6.4246 l -0.17847,1.60615 q 6.87076,-0.53538 7.94153,-2.32 0.17846,0.17847 0.17846,0.35693 0,2.14153 -8.11999,3.65845 l -0.0892,1.33846 q 2.94461,-0.17846 5.08615,-0.53538 2.23076,-0.44616 3.74768,-1.33846 -0.71384,2.14153 -9.19075,3.2123 0.44615,0.0892 0.44615,0.71384 0,0.2677 -0.35692,0.89231 l 2.94461,0.0892 q 2.94461,0 5.26461,-1.16 2.40922,-1.24923 4.01537,-3.2123 1.69538,-2.0523 2.58769,-4.63999 0.98154,-2.58769 0.98154,-5.44307 z m 7.22767,32.21225 q -4.37229,-5.88922 -7.76306,-9.99383 -3.39076,-4.19384 -5.97845,-6.95998 l -3.92614,0.62461 q -1.60615,0.26769 -3.2123,0.44615 -1.51692,0.0892 -2.49846,0.17846 l -0.0892,3.74769 16.86458,17.31073 1.69538,-1.33846 -2.31999,-3.65845 3.47999,2.85538 1.16,-1.07077 -2.58769,-2.49845 3.65845,1.42768 1.51692,-1.07076 z m -40.59991,-45.15068 -0.17847,3.65845 4.10461,0.98154 -4.10461,0.98154 0.0892,1.42769 3.92615,0 -3.92615,1.69538 0,1.60615 5.17538,-0.44616 q 0.26769,-3.30153 0.35692,-5.79998 0.0892,-2.58769 0.0892,-4.63999 l -5.53229,0.53538 z m 23.73533,13.38459 q 0,-3.03384 -4.81845,-3.03384 l -0.98154,6.69229 q 5.79999,-0.17846 5.79999,-3.65845 z m -20.25534,6.33537 -2.85538,0.71384 2.49846,7.40614 0.35692,-8.11998 z m 8.56614,2.49846 -0.71385,0.71384 -0.89231,-0.89231 0.44616,-0.71384 1.16,0.89231 z m 0.8923,-16.3292 -0.53538,0.71384 -0.80308,-0.71384 0.80308,-0.53539 0.53538,0.53539 z" />
      </g>
    </g>
    <g
       id="g5122"
       inkscape:export-xdpi="473.23999"
       inkscape:export-ydpi="473.23999"
       transform="translate(-40,0)">
      <path
         inkscape:connector-curvature="0"
         id="path4820"
         d="m 312.56641,384.93359 0,2.60352 -5.01758,0.76172 1.52344,9.8457 3.36718,0.18945 -0.1914,2.98438 -2.73047,1.14453 c 2.03232,3.68359 3.04883,9.48278 3.04883,17.40039 0,0.8468 -0.0221,1.63178 -0.0645,2.35156 0,0.67744 -0.0202,1.37593 -0.0625,2.09571 l 13.90821,-1.65235 -0.12696,-12.89258 c 2.92148,0 5.61068,-0.25363 8.06641,-0.76171 2.49807,-0.55043 4.63578,-1.33345 6.41406,-2.34961 1.82062,-1.01616 3.21758,-2.24403 4.19141,-3.6836 1.01616,-1.43956 1.52344,-3.07 1.52344,-4.89062 0,-1.69361 -0.4429,-3.25965 -1.33204,-4.69922 -0.8468,-1.43956 -2.01224,-2.68954 -3.49414,-3.74805 -1.43956,-1.0585 -3.15454,-1.88379 -5.14453,-2.47656 -1.94764,-0.59276 -4.02292,-0.88867 -6.22461,-0.88867 -0.93148,0 -1.84133,0.0423 -2.73047,0.12695 -0.88914,0.0847 -1.79898,0.2115 -2.73046,0.38086 l -0.31836,-1.8418 -11.875,0 z m 74.66797,6.03321 c 0.0423,0.0423 0.0625,0.23354 0.0625,0.57226 0,0.50808 -0.14698,0.97309 -0.44336,1.39649 -0.29638,0.38106 -0.69896,0.74138 -1.20704,1.08007 -0.46574,0.29639 -0.99513,0.52986 -1.58789,0.69922 -0.55042,0.16936 -1.07981,0.25391 -1.58789,0.25391 0,0.25404 0.0644,0.59221 0.19141,1.01563 0.12702,0.38105 0.25384,0.80379 0.38086,1.26953 0.12702,0.4234 0.25384,0.82596 0.38086,1.20703 0.12702,0.33872 0.18945,0.59236 0.18945,0.76172 0,0.16936 -0.0846,0.6142 -0.2539,1.33398 -0.16936,0.67745 -0.40089,1.50274 -0.69727,2.47656 -0.29638,0.97382 -0.61441,2.01244 -0.95313,3.11328 -0.33872,1.10084 -0.69901,2.13751 -1.08007,3.11133 -0.33873,0.93148 -0.65675,1.73661 -0.95313,2.41407 -0.29638,0.67743 -0.5279,1.05789 -0.69726,1.14257 -0.38106,0.25404 -0.82591,0.44525 -1.33399,0.57227 -0.50809,0.12702 -0.9952,0.23175 -1.46094,0.3164 -0.46574,0.0847 -0.86831,0.14908 -1.20703,0.19141 l -0.57226,0 c 0,4.02231 0.3603,7.00743 1.08008,8.95508 -10e-6,0.0423 0.0845,0.18932 0.2539,0.44336 0.16936,0.2117 0.36057,0.46729 0.57227,0.76367 0.2117,0.29638 0.40095,0.59229 0.57031,0.88867 0.16936,0.29639 0.25586,0.55002 0.25586,0.76172 0.42341,-0.2117 0.93068,-0.31836 1.52344,-0.31836 0.25404,0 0.61433,0.0644 1.08007,0.19141 l 1.39649,0.50781 c 0.46574,0.2117 0.91058,0.40291 1.33398,0.57227 0.46574,0.16936 0.82604,0.29618 1.08008,0.38086 0.55043,-1.18553 0.99527,-2.22219 1.33399,-3.11133 0.33872,-0.88914 0.63463,-1.63185 0.88867,-2.22461 1.01616,0 2.20175,-0.0624 3.55664,-0.18946 1.35488,-0.12702 2.90078,-0.36049 4.63672,-0.69921 0.67744,1.0585 1.18471,2.01062 1.52343,2.85742 0.38106,0.80446 0.57227,1.48277 0.57227,2.0332 l 0.69727,-0.50781 c 0.46574,-0.29638 1.03739,-0.63457 1.71484,-1.01563 0.67744,-0.33872 1.37592,-0.65674 2.0957,-0.95312 0.71979,-0.33872 1.33372,-0.50781 1.8418,-0.50781 0.0847,0 0.21345,0.0202 0.38281,0.0625 0.2117,0 0.44323,0.0221 0.69727,0.0644 l 0.69922,-0.38086 c -0.0847,-0.25404 -0.16923,-0.80554 -0.25391,-1.65234 -0.0847,-0.88914 -0.16923,-1.86337 -0.25391,-2.92188 -0.0847,-1.0585 -0.19134,-2.07305 -0.31836,-3.04687 -0.12702,-1.01616 -0.25385,-1.77903 -0.38085,-2.28711 -0.0847,0.0423 -0.31816,0.0625 -0.69922,0.0625 l -2.73047,0 c -1.22787,-3.0485 -2.32892,-5.50423 -3.30274,-7.36719 -0.97382,-1.90531 -1.777,-3.23787 -2.41211,-4 0.46575,-1.35488 0.8462,-2.56259 1.14258,-3.62109 0.33872,-1.0585 0.65675,-1.94624 0.95313,-2.66602 l -1.33399,0.25391 c -2.54041,-2.45573 -4.99616,-3.8748 -7.36718,-4.25586 z m -35.69727,2.28711 -1.08008,21.21093 -3.87305,0.44532 0.31641,10.22461 3.17578,-0.69727 0.12695,0.88867 9.78126,-0.63476 0.18945,-2.22266 12.44922,-0.89063 -1.58789,-8.95507 -10.35157,1.14453 0.88868,-20.19727 -10.03516,-0.3164 z m 71.84375,1.14257 c -0.76212,1.56659 -1.56726,3.11248 -2.41406,4.63672 -0.80447,1.4819 -1.58749,2.96341 -2.34961,4.44532 l -8.06641,-8.95508 -7.11328,8.38281 c 1.60892,1.77829 3.19709,3.59992 4.76367,5.46289 1.56659,1.82062 3.15475,3.62015 4.76367,5.39844 l -4.50976,8.70117 8.57422,5.27148 15.9414,-28.13671 -9.58984,-5.20704 z m -95.25586,1.77735 c 1.77829,0 3.32418,0.59379 4.63672,1.77929 -0.76212,1.65126 -2.15908,2.47657 -4.19141,2.47657 -0.97382,0 -1.94805,-0.16909 -2.92187,-0.50781 L 325.58594,397 c 0.67744,-0.55042 1.52289,-0.82617 2.53906,-0.82617 z m 61.64844,14.86328 1.08008,2.85742 -2.09571,-0.50781 1.01563,-2.34961 z"
         style="font-style:normal;font-variant:normal;font-weight:normal;font-stretch:normal;font-size:medium;line-height:125%;font-family:'Burnstown Dam';-inkscape-font-specification:'Burnstown Dam';letter-spacing:0px;word-spacing:0px;fill:#d3bc5f;fill-opacity:1;stroke:none;stroke-width:1px;stroke-linecap:butt;stroke-linejoin:miter;stroke-opacity:1" />
      <text
         sodipodi:linespacing="125%"
         id="text3851"
         y="423.73822"
         x="305.77026"
         style="font-style:normal;font-variant:normal;font-weight:normal;font-stretch:normal;font-size:63.51018524px;line-height:125%;font-family:'Burnstown Dam';-inkscape-font-specification:'Burnstown Dam';letter-spacing:0px;word-spacing:0px;fill:#000000;fill-opacity:1;stroke:none;stroke-width:1px;stroke-linecap:butt;stroke-linejoin:miter;stroke-opacity:1"
         xml:space="preserve"><tspan
           y="423.73822"
           x="305.77026"
           id="tspan3853"
           sodipodi:role="line">Play</tspan></text>
    </g>
    <g
       id="g5112"
       inkscape:export-xdpi="473.23999"
       inkscape:export-ydpi="473.23999"
       transform="translate(-40,0)">
      <path
         inkscape:connector-curvature="0"
         id="path5109"
         d="m 314.85156,507.2832 0,2.41407 -4.44531,-0.25391 c -0.2117,2.03233 -0.42307,4.00094 -0.63477,5.90625 -0.16936,1.86297 -0.33845,3.83159 -0.50781,5.90625 0.84681,-0.0847 1.71438,-0.16923 2.60352,-0.25391 0.88914,-0.12702 1.77883,-0.21157 2.66797,-0.2539 l -0.44532,12.25781 -5.27148,-0.31836 -1.77734,10.09766 c 1.14318,0.16936 2.26438,0.31829 3.36523,0.44531 1.14318,0.0847 2.24423,0.2115 3.30273,0.38086 l 0,1.71484 2.54102,-0.12695 2.53906,0 c 2.66743,0 5.42102,0.12681 8.25782,0.38086 2.83678,0.25404 5.65086,0.65661 8.44531,1.20703 0.33872,-1.56659 0.61447,-3.09037 0.82617,-4.57227 0.25404,-1.52424 0.52978,-3.07013 0.82617,-4.63672 l -11.24219,-2.66796 0,-1.58789 9.01954,0.63476 c 0.0847,-1.90531 0.16922,-3.68272 0.2539,-5.33398 0.12703,-1.69361 0.21157,-3.47297 0.25391,-5.33594 -1.56659,-0.12703 -3.11248,-0.21157 -4.63672,-0.25391 -1.52425,-0.0423 -3.09029,-0.10477 -4.69922,-0.18945 l 0,-2.98633 15.56055,-1.52344 -2.35157,-9.20898 c -2.07466,-0.0424 -4.19026,-0.0846 -6.34961,-0.12695 -2.15934,-0.0847 -4.27689,-0.12696 -6.35156,-0.12696 l -1.08008,-1.14257 c -1.77828,-0.0847 -3.5557,-0.14908 -5.33398,-0.19141 -1.77829,-0.0423 -3.55765,-0.12689 -5.33594,-0.25391 z m 60.35742,5.27149 -1.46093,33.27929 10.16211,-1.14257 0,-31.1836 -8.70118,-0.95312 z m 31.7754,2.0332 -19.3711,2.41211 -0.44336,9.58984 5.65235,-0.76172 0,20.07032 8.06445,0 0,-20.83203 6.92383,-0.57227 -0.82617,-9.90625 z m -54.62891,0.63477 -8.95508,4.95312 3.30273,5.58984 c 1.14319,1.86297 2.26439,3.74705 3.36524,5.65235 l -6.41406,8.82812 8.95508,5.71485 c 0.59275,-0.84681 1.16442,-1.73649 1.71484,-2.66797 0.55042,-0.97383 1.09996,-1.90383 1.65039,-2.79297 l 3.36719,4.95312 6.85937,-3.81054 c -0.67744,-1.31254 -1.35576,-2.66723 -2.0332,-4.06446 -0.67744,-1.39721 -1.37592,-2.77401 -2.0957,-4.1289 l 8.82812,-10.09766 -6.60547,-7.93945 c -1.22786,1.35488 -2.47785,2.75184 -3.74804,4.19141 -1.22787,1.43956 -2.4759,2.83848 -3.7461,4.19336 l -4.44531,-8.57422 z"
         style="font-style:normal;font-variant:normal;font-weight:normal;font-stretch:normal;font-size:medium;line-height:125%;font-family:'Burnstown Dam';-inkscape-font-specification:'Burnstown Dam';letter-spacing:0px;word-spacing:0px;fill:#d3bc5f;fill-opacity:1;stroke:none;stroke-width:1px;stroke-linecap:butt;stroke-linejoin:miter;stroke-opacity:1" />
      <text
         sodipodi:linespacing="125%"
         id="text3859"
         y="543.73822"
         x="305.77026"
         style="font-style:normal;font-variant:normal;font-weight:normal;font-stretch:normal;font-size:63.51018524px;line-height:125%;font-family:'Burnstown Dam';-inkscape-font-specification:'Burnstown Dam';letter-spacing:0px;word-spacing:0px;fill:#000000;fill-opacity:1;stroke:none;stroke-width:1px;stroke-linecap:butt;stroke-linejoin:miter;stroke-opacity:1"
         xml:space="preserve"><tspan
           y="543.73822"
           x="305.77026"
           id="tspan3861"
           sodipodi:role="line">Exit</tspan></text>
    </g>
    <path
       sodipodi:type="inkscape:offset"
       inkscape:radius="0"
       inkscape:original="M 276.07031 388.25 C 275.2169 388.00225 274.32587 388.49423 274.07812 389.34766 C 273.95866 389.75918 274.80143 390.94491 274.66797 391.38867 C 274.43673 392.15729 273.94412 392.93097 273.61719 393.64258 A 12.903626 12.903626 0 0 0 265.39844 394.54883 C 264.92423 393.9269 264.27573 393.28035 263.88281 392.58203 C 263.6556 392.17816 264.22019 390.83642 264.01367 390.46094 C 263.79954 390.07163 263.4481 389.80618 263.05273 389.69141 C 262.65737 389.57664 262.21746 389.61199 261.82812 389.82617 C 261.0494 390.25442 260.76509 391.23309 261.19336 392.01172 C 261.39989 392.3872 262.84414 392.62432 263.05469 393.03711 C 263.3865 393.68761 263.61952 394.62791 263.9043 395.37695 A 12.903626 12.903626 0 0 0 258.72461 401.82422 C 257.95126 401.72096 257.04037 401.72303 256.27148 401.50781 C 255.82524 401.38292 255.27482 400.03352 254.86328 399.91406 C 254.00987 399.66631 253.11883 400.1583 252.87109 401.01172 C 252.62336 401.86512 253.11337 402.75811 253.9668 403.00586 C 254.37832 403.12533 255.56704 402.273 256.00781 402.41602 C 256.70199 402.64122 257.53105 403.14037 258.26172 403.46875 A 12.903626 12.903626 0 0 0 259.16797 411.68555 C 258.54599 412.15989 257.89949 412.8063 257.20117 413.19922 C 256.7973 413.42643 255.45554 412.86379 255.08008 413.07031 C 254.30144 413.49859 254.01704 414.47723 254.44531 415.25586 C 254.87356 416.03459 255.85223 416.3189 256.63086 415.89062 C 257.00633 415.6841 257.24346 414.23985 257.65625 414.0293 C 258.30678 413.69749 259.24691 413.46445 259.99609 413.17969 A 12.903626 12.903626 0 0 0 266.44531 418.35742 C 266.34217 419.13077 266.34206 420.04184 266.12695 420.81055 C 266.00205 421.25678 264.65463 421.80722 264.53516 422.21875 C 264.28742 423.07216 264.77744 423.96515 265.63086 424.21289 C 266.48426 424.46063 267.37726 423.97061 267.625 423.11719 C 267.74446 422.70566 266.89214 421.515 267.03516 421.07422 C 267.26031 420.38019 267.75947 419.55293 268.08789 418.82227 A 12.903626 12.903626 0 0 0 276.30273 417.91602 C 276.7826 418.55629 277.44954 419.25585 277.82031 419.88281 C 278.0562 420.28167 277.48293 421.62845 277.68945 422.00391 C 278.11773 422.78255 279.09634 423.0651 279.875 422.63672 C 280.65362 422.20844 280.93806 421.23175 280.50977 420.45312 C 280.30326 420.07765 278.86787 419.83394 278.64844 419.42578 C 278.26805 418.71813 278.0693 417.82263 277.79688 417.08789 A 12.903626 12.903626 0 0 0 282.97656 410.64062 C 283.76712 410.7529 284.7287 410.77655 285.43164 410.95703 C 285.88048 411.07224 286.42831 412.42937 286.83984 412.54883 C 287.69325 412.79657 288.58429 412.30458 288.83203 411.45117 C 289.07977 410.59776 288.58975 409.70476 287.73633 409.45703 C 287.3248 409.33756 286.13907 410.18228 285.69531 410.04883 C 284.9267 409.81758 284.15303 409.32301 283.44141 408.99609 A 12.903626 12.903626 0 0 0 282.53711 400.78125 C 283.17744 400.30126 283.87497 399.63447 284.50195 399.26367 C 284.90081 399.0278 286.24759 399.60106 286.62305 399.39453 C 287.40169 398.96626 287.68618 397.98568 287.25781 397.20703 C 287.04368 396.81771 286.69223 396.55227 286.29688 396.4375 C 285.9015 396.32272 285.46159 396.36009 285.07227 396.57422 C 284.6968 396.78074 284.45501 398.21614 284.04688 398.43555 C 283.33922 398.81595 282.44177 399.01275 281.70703 399.28516 A 12.903626 12.903626 0 0 0 275.25977 394.10547 C 275.37205 393.31491 275.39568 392.35528 275.57617 391.65234 C 275.69138 391.2035 277.0485 390.65567 277.16797 390.24414 C 277.41571 389.39073 276.92373 388.49774 276.07031 388.25 z M 270.81641 395.30078 A 10.941672 10.941672 0 0 1 272.84766 395.47852 L 271.20898 401.99219 A 4.2551446 4.2551446 0 0 0 269.57617 402.17383 L 266.55859 396.1875 A 10.941672 10.941672 0 0 1 270.81641 395.30078 z M 274.91992 396.0918 A 10.941672 10.941672 0 0 1 279.86914 400.03906 L 274.09961 403.48828 A 4.2551446 4.2551446 0 0 0 272.81836 402.46289 L 274.91992 396.0918 z M 264.66016 397.21484 L 268.10742 402.98242 A 4.2551446 4.2551446 0 0 0 267.08203 404.26562 L 260.71289 402.16406 A 10.941672 10.941672 0 0 1 264.66016 397.21484 z M 280.89453 401.93945 A 10.941672 10.941672 0 0 1 281.60352 408.22852 L 275.0918 406.58984 A 4.2551446 4.2551446 0 0 0 274.9082 404.95703 L 280.89453 401.93945 z M 260.09961 404.23438 L 266.61133 405.87305 A 4.2551446 4.2551446 0 0 0 266.79492 407.50586 L 260.80859 410.52344 A 10.941672 10.941672 0 0 1 260.09961 404.23438 z M 270.86328 405.22461 A 1.0077974 1.0077974 0 0 1 271.13281 405.26367 A 1.0077974 1.0077974 0 0 1 271.82031 406.51172 A 1.0077974 1.0077974 0 0 1 270.57031 407.19922 A 1.0077974 1.0077974 0 0 1 269.88477 405.94922 A 1.0077974 1.0077974 0 0 1 270.86328 405.22461 z M 274.62109 408.19727 L 280.99219 410.29883 A 10.941672 10.941672 0 0 1 277.04492 415.24805 L 273.5957 409.48047 A 4.2551446 4.2551446 0 0 0 274.62109 408.19727 z M 267.60352 408.97461 A 4.2551446 4.2551446 0 0 0 268.88477 410 L 266.7832 416.37109 A 10.941672 10.941672 0 0 1 261.83398 412.42383 L 267.60352 408.97461 z M 272.12695 410.28906 L 275.14258 416.27344 A 10.941672 10.941672 0 0 1 268.85547 416.98438 L 270.49414 410.4707 A 4.2551446 4.2551446 0 0 0 272.12695 410.28906 z "
       style="fill:#803300;stroke:#000000;stroke-width:0.59761113"
       id="path4741"
       d="m 276.07031,388.25 c -0.85341,-0.24775 -1.74444,0.24423 -1.99219,1.09766 -0.11946,0.41152 0.72331,1.59725 0.58985,2.04101 -0.23124,0.76862 -0.72385,1.5423 -1.05078,2.25391 a 12.903626,12.903626 0 0 0 -8.21875,0.90625 c -0.47421,-0.62193 -1.12271,-1.26848 -1.51563,-1.9668 -0.22721,-0.40387 0.33738,-1.74561 0.13086,-2.12109 -0.21413,-0.38931 -0.56557,-0.65476 -0.96094,-0.76953 -0.39536,-0.11477 -0.83527,-0.0794 -1.22461,0.13476 -0.77872,0.42825 -1.06303,1.40692 -0.63476,2.18555 0.20653,0.37548 1.65078,0.6126 1.86133,1.02539 0.33181,0.6505 0.56483,1.5908 0.84961,2.33984 a 12.903626,12.903626 0 0 0 -5.17969,6.44727 c -0.77335,-0.10326 -1.68424,-0.10119 -2.45313,-0.31641 -0.44624,-0.12489 -0.99666,-1.47429 -1.4082,-1.59375 -0.85341,-0.24775 -1.74445,0.24424 -1.99219,1.09766 -0.24773,0.8534 0.24228,1.74639 1.09571,1.99414 0.41152,0.11947 1.60024,-0.73286 2.04101,-0.58984 0.69418,0.2252 1.52324,0.72435 2.25391,1.05273 a 12.903626,12.903626 0 0 0 0.90625,8.2168 c -0.62198,0.47434 -1.26848,1.12075 -1.9668,1.51367 -0.40387,0.22721 -1.74563,-0.33543 -2.12109,-0.12891 -0.77864,0.42828 -1.06304,1.40692 -0.63477,2.18555 0.42825,0.77873 1.40692,1.06304 2.18555,0.63476 0.37547,-0.20652 0.6126,-1.65077 1.02539,-1.86132 0.65053,-0.33181 1.59066,-0.56485 2.33984,-0.84961 a 12.903626,12.903626 0 0 0 6.44922,5.17773 c -0.10314,0.77335 -0.10325,1.68442 -0.31836,2.45313 -0.1249,0.44623 -1.47232,0.99667 -1.59179,1.4082 -0.24774,0.85341 0.24228,1.7464 1.0957,1.99414 0.8534,0.24774 1.7464,-0.24228 1.99414,-1.0957 0.11946,-0.41153 -0.73286,-1.60219 -0.58984,-2.04297 0.22515,-0.69403 0.72431,-1.52129 1.05273,-2.25195 a 12.903626,12.903626 0 0 0 8.21484,-0.90625 c 0.47987,0.64027 1.14681,1.33983 1.51758,1.96679 0.23589,0.39886 -0.33738,1.74564 -0.13086,2.1211 0.42828,0.77864 1.40689,1.06119 2.18555,0.63281 0.77862,-0.42828 1.06306,-1.40497 0.63477,-2.1836 -0.20651,-0.37547 -1.6419,-0.61918 -1.86133,-1.02734 -0.38039,-0.70765 -0.57914,-1.60315 -0.85156,-2.33789 a 12.903626,12.903626 0 0 0 5.17968,-6.44727 c 0.79056,0.11228 1.75214,0.13593 2.45508,0.31641 0.44884,0.11521 0.99667,1.47234 1.4082,1.5918 0.85341,0.24774 1.74445,-0.24425 1.99219,-1.09766 0.24774,-0.85341 -0.24228,-1.74641 -1.0957,-1.99414 -0.41153,-0.11947 -1.59726,0.72525 -2.04102,0.5918 -0.76861,-0.23125 -1.54228,-0.72582 -2.2539,-1.05274 a 12.903626,12.903626 0 0 0 -0.9043,-8.21484 c 0.64033,-0.47999 1.33786,-1.14678 1.96484,-1.51758 0.39886,-0.23587 1.74564,0.33739 2.1211,0.13086 0.77864,-0.42827 1.06313,-1.40885 0.63476,-2.1875 -0.21413,-0.38932 -0.56558,-0.65476 -0.96093,-0.76953 -0.39538,-0.11478 -0.83529,-0.0774 -1.22461,0.13672 -0.37547,0.20652 -0.61726,1.64192 -1.02539,1.86133 -0.70766,0.3804 -1.60511,0.5772 -2.33985,0.84961 a 12.903626,12.903626 0 0 0 -6.44726,-5.17969 c 0.11228,-0.79056 0.13591,-1.75019 0.3164,-2.45313 0.11521,-0.44884 1.47233,-0.99667 1.5918,-1.4082 0.24774,-0.85341 -0.24424,-1.7464 -1.09766,-1.99414 z m -5.2539,7.05078 a 10.941672,10.941672 0 0 1 2.03125,0.17774 l -1.63868,6.51367 a 4.2551446,4.2551446 0 0 0 -1.63281,0.18164 l -3.01758,-5.98633 a 10.941672,10.941672 0 0 1 4.25782,-0.88672 z m 4.10351,0.79102 a 10.941672,10.941672 0 0 1 4.94922,3.94726 l -5.76953,3.44922 a 4.2551446,4.2551446 0 0 0 -1.28125,-1.02539 l 2.10156,-6.37109 z m -10.25976,1.12304 3.44726,5.76758 a 4.2551446,4.2551446 0 0 0 -1.02539,1.2832 l -6.36914,-2.10156 a 10.941672,10.941672 0 0 1 3.94727,-4.94922 z m 16.23437,4.72461 a 10.941672,10.941672 0 0 1 0.70899,6.28907 l -6.51172,-1.63868 a 4.2551446,4.2551446 0 0 0 -0.1836,-1.63281 l 5.98633,-3.01758 z m -20.79492,2.29493 6.51172,1.63867 a 4.2551446,4.2551446 0 0 0 0.18359,1.63281 l -5.98633,3.01758 a 10.941672,10.941672 0 0 1 -0.70898,-6.28906 z m 10.76367,0.99023 a 1.0077974,1.0077974 0 0 1 0.26953,0.0391 1.0077974,1.0077974 0 0 1 0.6875,1.24805 1.0077974,1.0077974 0 0 1 -1.25,0.6875 1.0077974,1.0077974 0 0 1 -0.68554,-1.25 1.0077974,1.0077974 0 0 1 0.97851,-0.72461 z m 3.75781,2.97266 6.3711,2.10156 a 10.941672,10.941672 0 0 1 -3.94727,4.94922 l -3.44922,-5.76758 a 4.2551446,4.2551446 0 0 0 1.02539,-1.2832 z m -7.01757,0.77734 A 4.2551446,4.2551446 0 0 0 268.88477,410 l -2.10157,6.37109 a 10.941672,10.941672 0 0 1 -4.94922,-3.94726 l 5.76954,-3.44922 z m 4.52343,1.31445 3.01563,5.98438 a 10.941672,10.941672 0 0 1 -6.28711,0.71094 l 1.63867,-6.51368 a 4.2551446,4.2551446 0 0 0 1.63281,-0.18164 z"
       transform="matrix(2.4527302,-0.65720709,0.65720709,2.4527302,-563.00858,-664.81258)"
       inkscape:export-xdpi="473.23999"
       inkscape:export-ydpi="473.23999" />
    <g
       id="g5117"
       inkscape:export-xdpi="473.23999"
       inkscape:export-ydpi="473.23999"
       transform="translate(-40,0)">
      <path
         id="path5051"
         d="m 325.64844,444.61523 c -2.24403,0 -4.4019,0.44485 -6.47656,1.33399 -2.07467,0.88914 -3.91648,2.09685 -5.5254,3.62109 -1.60892,1.52425 -2.90118,3.2815 -3.875,5.27149 -0.97382,1.98998 -1.46093,4.06331 -1.46093,6.22265 0,1.35489 0.16909,2.64714 0.50781,3.875 0.33872,1.18552 0.8681,2.22219 1.58789,3.11133 0.25404,0.33873 0.74116,0.76341 1.46094,1.27149 0.76212,0.50808 1.54514,1.05763 2.34961,1.65039 0.80446,0.55042 1.56733,1.12208 2.28711,1.71484 0.71978,0.55042 1.18478,1.03754 1.39648,1.46094 -0.0423,0.29638 -0.21143,0.59229 -0.50781,0.88867 -0.29638,0.29639 -0.65667,0.44531 -1.08008,0.44531 -0.6351,0 -1.2692,-0.0845 -1.9043,-0.2539 -0.6351,-0.21171 -1.20675,-0.44518 -1.71484,-0.69922 -0.50808,-0.29638 -0.93277,-0.5923 -1.27148,-0.88868 -0.33873,-0.29637 -0.55009,-0.55001 -0.63477,-0.76171 -0.16936,0.38106 -0.50755,1.01515 -1.01563,1.90429 -0.46574,0.84681 -0.97301,1.77877 -1.52343,2.79492 -0.55042,1.01617 -1.07981,2.03267 -1.58789,3.04883 -0.50809,0.97383 -0.84822,1.77701 -1.01758,2.41211 3.85295,2.24403 7.77002,3.36719 11.75,3.36719 2.20168,0 4.19242,-0.34014 5.9707,-1.01758 1.77829,-0.67744 3.30206,-1.64972 4.57227,-2.91992 1.2702,-1.27021 2.24443,-2.79593 2.92187,-4.57422 0.71978,-1.82062 1.07813,-3.85168 1.07813,-6.0957 0,-0.97383 -0.2738,-1.90578 -0.82422,-2.79492 -0.55042,-0.93149 -1.31328,-1.65208 -2.28711,-2.16016 -1.69361,-0.8468 -3.11268,-1.4809 -4.25586,-1.9043 -1.14319,-0.46574 -2.07319,-0.88847 -2.79297,-1.26953 -0.67744,-0.38106 -1.18667,-0.80574 -1.52539,-1.27148 -0.29639,-0.46574 -0.44336,-1.12195 -0.44336,-1.96875 0,-1.94765 1.10105,-2.92188 3.30274,-2.92188 0.25404,0 0.61238,0.0423 1.07812,0.12696 0.46574,0.0423 0.95286,0.10672 1.46094,0.1914 0.50808,0.0847 0.99519,0.16923 1.46094,0.25391 0.46573,0.0423 0.82603,0.0644 1.08007,0.0644 0.97382,-1.77829 1.92594,-3.45099 2.85743,-5.01758 0.97382,-1.56658 1.94804,-3.05004 2.92187,-4.44726 -1.94765,-2.70977 -4.7214,-4.06446 -8.32031,-4.06446 z m 83.67187,7.93946 -1.46093,33.27929 10.1621,-1.14257 0,-31.1836 -8.70117,-0.95312 z m 25.36133,0.69922 -10.03516,0.3164 c 0,0.76213 -0.0423,1.56727 -0.12695,2.41407 -0.0423,0.80446 -0.0846,1.58748 -0.12695,2.3496 l -2.98438,3.36524 1.7793,1.65234 c 0.63511,0.55042 1.22692,1.12208 1.77734,1.71485 l 2.03321,18.79882 1.52343,0 2.03321,0.31836 c 0.59276,0.0423 1.12215,0.10478 1.58789,0.18946 0.46574,0.0847 0.88847,0.12695 1.26953,0.12695 0.46574,0 0.88846,-0.0202 1.26953,-0.0625 0.4234,-0.0423 0.7837,-0.10673 1.08008,-0.19141 -0.0847,-1.77828 -0.14907,-3.57781 -0.19141,-5.39843 -0.0423,-1.82063 -0.12688,-3.62015 -0.2539,-5.39844 l 9.14648,8.89258 0.18945,2.03125 9.84571,1.01562 c 0,-0.88914 -0.0221,-1.81915 -0.0645,-2.79297 l 0,-2.85937 2.41407,-2.09571 -2.47657,-2.73046 0.63477,-19.94141 -10.22656,-0.95313 c -0.0847,2.32871 -0.14712,4.67779 -0.18946,7.04883 -0.0423,2.32871 -0.12688,4.65762 -0.2539,6.98633 l -9.14649,-9.27148 -0.50781,-5.52539 z m 64.80469,0 c -1.69361,0 -3.36632,0.35834 -5.01758,1.07812 -1.60893,0.67745 -3.04815,1.6094 -4.31836,2.79492 -1.2702,1.14319 -2.2867,2.47772 -3.04883,4.00196 -0.76212,1.52424 -1.14258,3.13256 -1.14258,4.82617 0,2.41338 0.57166,4.2773 1.71485,5.58984 0.25404,0.29639 0.65661,0.63457 1.20703,1.01563 0.55042,0.38106 1.12208,0.78363 1.71484,1.20703 0.59277,0.4234 1.14231,0.82597 1.65039,1.20703 0.50808,0.38107 0.82611,0.71924 0.95313,1.01562 -0.33872,0.50808 -0.72113,0.76172 -1.14453,0.76172 -1.82063,-1.14318 -3.17532,-1.75711 -4.06446,-1.84179 -0.0423,0.12702 -0.2537,0.52959 -0.63476,1.20703 -0.33873,0.6351 -0.74129,1.37585 -1.20703,2.22265 -0.4234,0.84681 -0.86825,1.71438 -1.33399,2.60352 -0.4234,0.84681 -0.73947,1.54528 -0.95117,2.0957 2.96381,1.77829 6.05364,2.66797 9.27149,2.66797 3.51423,0 6.26587,-1.0165 8.25585,-3.04883 1.98999,-2.07466 2.98633,-4.84842 2.98633,-8.32031 0,-0.88914 -0.1912,-1.67217 -0.57226,-2.34961 -0.38106,-0.71979 -0.995,-1.29144 -1.8418,-1.71484 -1.01617,-0.50808 -1.94812,-0.93081 -2.79492,-1.26953 -0.80446,-0.33872 -1.50294,-0.6769 -2.0957,-1.01563 -0.59276,-0.33872 -1.05777,-0.67886 -1.39649,-1.01758 -0.29638,-0.38106 -0.44531,-0.82395 -0.44531,-1.33203 0,-1.43956 0.76287,-2.16015 2.28711,-2.16015 0.46574,0 1.09984,0.0644 1.9043,0.1914 0.84679,0.12702 1.56738,0.23173 2.16015,0.31641 0.76212,-1.4819 1.50288,-2.81448 2.22266,-4 0.71978,-1.22786 1.46053,-2.35102 2.22265,-3.36719 l 0,-0.12695 c -1.4819,-2.15935 -3.66189,-3.23828 -6.54101,-3.23828 z m -27.90039,0.50781 c -4.40338,0 -7.79107,1.14332 -10.16211,3.42969 -2.37105,2.28636 -3.55469,5.54528 -3.55469,9.77929 0,2.11701 0.31607,4.15001 0.95117,6.09766 0.6351,1.90531 1.50268,3.62029 2.60352,5.14453 1.10084,1.48191 2.3931,2.6675 3.875,3.55664 1.4819,0.88915 3.07006,1.33399 4.76367,1.33399 0.46574,0 0.93074,-0.0423 1.39648,-0.12696 0.50808,-0.0847 1.03747,-0.16922 1.5879,-0.2539 l 1.65234,5.08007 c 3.42955,-1.14318 6.05438,-2.07513 7.875,-2.79492 l 0,-0.12695 -5.20899,-19.24219 -7.875,2.34961 c 0.0847,0.84681 0.2115,1.75665 0.38086,2.73047 0.16936,0.93149 0.29618,1.84133 0.38086,2.73047 -1.0585,-0.12702 -1.8838,-0.6343 -2.47656,-1.52344 -0.55042,-0.93149 -0.82617,-1.9701 -0.82617,-3.11328 0,-1.52425 0.42468,-2.77227 1.27148,-3.74609 0.88915,-0.97383 2.11702,-1.46094 3.6836,-1.46094 0.8468,0 1.75665,0.21136 2.73047,0.63476 l 4.63671,-7.55664 c -2.62509,-1.94764 -5.18748,-2.92187 -7.68554,-2.92187 z m -132.16406,0.18945 0,1.65235 -3.61915,-0.12696 -0.95312,9.33594 4.00195,0 0,10.16211 -4.38281,-0.31836 -1.46094,8.12891 5.65235,1.08007 -0.12696,1.52344 c 0.71978,-0.0423 1.41826,-0.0846 2.09571,-0.12695 0.71978,-0.0423 1.46053,-0.0625 2.22265,-0.0625 4.61508,0 9.23063,0.42272 13.84571,1.26953 l 1.46093,-7.42969 -9.33593,-2.22265 0,-1.65235 7.55859,0.44532 0.38086,-9.01954 -7.8125,0 0,-2.66601 12.95703,-1.14453 -1.9707,-7.6836 -10.60547,0 -0.95313,-1.14453 -8.95507,0 z m 42.7539,0.63672 -19.37109,2.41211 -0.44336,9.58984 5.65234,-0.76172 0,20.07032 8.06445,0 0,-20.83203 6.92383,-0.57227 -0.82617,-9.90625 z m 21.95508,0 -19.36914,2.41211 -0.44531,9.58984 5.65234,-0.76172 0,20.07032 8.06641,0 0,-20.83203 6.92187,-0.57227 -0.82617,-9.90625 z"
         style="font-style:normal;font-variant:normal;font-weight:normal;font-stretch:normal;font-size:medium;line-height:125%;font-family:'Burnstown Dam';-inkscape-font-specification:'Burnstown Dam';letter-spacing:0px;word-spacing:0px;fill:#d3bc5f;fill-opacity:1;stroke:none;stroke-width:1px;stroke-linecap:butt;stroke-linejoin:miter;stroke-opacity:1"
         inkscape:connector-curvature="0" />
      <text
         xml:space="preserve"
         style="font-style:normal;font-variant:normal;font-weight:normal;font-stretch:normal;font-size:63.51018524px;line-height:125%;font-family:'Burnstown Dam';-inkscape-font-specification:'Burnstown Dam';letter-spacing:0px;word-spacing:0px;fill:#000000;fill-opacity:1;stroke:none;stroke-width:1px;stroke-linecap:butt;stroke-linejoin:miter;stroke-opacity:1"
         x="305.77026"
         y="483.73822"
         id="text3855"
         sodipodi:linespacing="125%"><tspan
           sodipodi:role="line"
           id="tspan3857"
           x="305.77026"
           y="483.73822">Settings</tspan></text>
    </g>
    <g
       id="g5318"
       inkscape:export-xdpi="144"
       inkscape:export-ydpi="144">
      <image
         sodipodi:absref="C:\Users\orakeldel\Documents\Canada\GameJam\OceanRunner\Gfx\steerwheel\0014.png"
         xlink:href="steerwheel\0014.png"
         y="765.61456"
         x="1905.05"
         id="image5150"
         preserveAspectRatio="none"
         height="125"
         width="125" />
      <image
         sodipodi:absref="C:\Users\orakeldel\Documents\Canada\GameJam\OceanRunner\Gfx\steerwheel\0015.png"
         xlink:href="steerwheel\0015.png"
         y="765.61456"
         x="1780.05"
         id="image5161"
         preserveAspectRatio="none"
         height="125"
         width="125" />
      <image
         sodipodi:absref="C:\Users\orakeldel\Documents\Canada\GameJam\OceanRunner\Gfx\steerwheel\0016.png"
         xlink:href="steerwheel\0016.png"
         y="765.61456"
         x="1655.05"
         id="image5172"
         preserveAspectRatio="none"
         height="125"
         width="125" />
      <image
         sodipodi:absref="C:\Users\orakeldel\Documents\Canada\GameJam\OceanRunner\Gfx\steerwheel\0001.png"
         xlink:href="steerwheel\0001.png"
         y="765.61456"
         x="1155.05"
         id="image5183"
         preserveAspectRatio="none"
         height="125"
         width="125" />
      <image
         sodipodi:absref="C:\Users\orakeldel\Documents\Canada\GameJam\OceanRunner\Gfx\steerwheel\0002.png"
         xlink:href="steerwheel\0002.png"
         y="765.61456"
         x="1530.05"
         id="image5194"
         preserveAspectRatio="none"
         height="125"
         width="125" />
      <image
         sodipodi:absref="C:\Users\orakeldel\Documents\Canada\GameJam\OceanRunner\Gfx\steerwheel\0003.png"
         xlink:href="steerwheel\0003.png"
         y="765.61456"
         x="1405.05"
         id="image5205"
         preserveAspectRatio="none"
         height="125"
         width="125" />
      <image
         sodipodi:absref="C:\Users\orakeldel\Documents\Canada\GameJam\OceanRunner\Gfx\steerwheel\0004.png"
         xlink:href="steerwheel\0004.png"
         y="765.61456"
         x="1280.05"
         id="image5216"
         preserveAspectRatio="none"
         height="125"
         width="125" />
      <image
         sodipodi:absref="C:\Users\orakeldel\Documents\Canada\GameJam\OceanRunner\Gfx\steerwheel\0005.png"
         xlink:href="steerwheel\0005.png"
         y="765.61456"
         x="1030.05"
         id="image5227"
         preserveAspectRatio="none"
         height="125"
         width="125" />
      <image
         sodipodi:absref="C:\Users\orakeldel\Documents\Canada\GameJam\OceanRunner\Gfx\steerwheel\0006.png"
         xlink:href="steerwheel\0006.png"
         y="765.61456"
         x="905.05011"
         id="image5238"
         preserveAspectRatio="none"
         height="125"
         width="125" />
      <image
         sodipodi:absref="C:\Users\orakeldel\Documents\Canada\GameJam\OceanRunner\Gfx\steerwheel\0007.png"
         xlink:href="steerwheel\0007.png"
         y="765.61456"
         x="780.05011"
         id="image5249"
         preserveAspectRatio="none"
         height="125"
         width="125" />
      <image
         sodipodi:absref="C:\Users\orakeldel\Documents\Canada\GameJam\OceanRunner\Gfx\steerwheel\0008.png"
         xlink:href="steerwheel\0008.png"
         y="765.61456"
         x="655.05011"
         id="image5260"
         preserveAspectRatio="none"
         height="125"
         width="125" />
      <image
         sodipodi:absref="C:\Users\orakeldel\Documents\Canada\GameJam\OceanRunner\Gfx\steerwheel\0009.png"
         xlink:href="steerwheel\0009.png"
         y="765.61456"
         x="530.05011"
         id="image5271"
         preserveAspectRatio="none"
         height="125"
         width="125" />
      <image
         sodipodi:absref="C:\Users\orakeldel\Documents\Canada\GameJam\OceanRunner\Gfx\steerwheel\0010.png"
         xlink:href="steerwheel\0010.png"
         y="765.61456"
         x="405.05011"
         id="image5282"
         preserveAspectRatio="none"
         height="125"
         width="125" />
      <image
         sodipodi:absref="C:\Users\orakeldel\Documents\Canada\GameJam\OceanRunner\Gfx\steerwheel\0011.png"
         xlink:href="steerwheel\0011.png"
         y="765.61456"
         x="280.05011"
         id="image5293"
         preserveAspectRatio="none"
         height="125"
         width="125" />
      <image
         sodipodi:absref="C:\Users\orakeldel\Documents\Canada\GameJam\OceanRunner\Gfx\steerwheel\0012.png"
         xlink:href="steerwheel\0012.png"
         y="765.61456"
         x="155.05011"
         id="image5304"
         preserveAspectRatio="none"
         height="125"
         width="125" />
      <image
         sodipodi:absref="C:\Users\orakeldel\Documents\Canada\GameJam\OceanRunner\Gfx\steerwheel\0013.png"
         xlink:href="steerwheel\0013.png"
         y="765.61456"
         x="30.05011"
         id="image5315"
         preserveAspectRatio="none"
         height="125"
         width="125" />
    </g>
  </g>
</svg>
